<?xml version="1.0" encoding="utf-8"?>
<!-- Generator: Adobe Illustrator 16.0.3, SVG Export Plug-In . SVG Version: 6.00 Build 0)  -->
<!DOCTYPE svg PUBLIC "-//W3C//DTD SVG 1.1//EN" "http://www.w3.org/Graphics/SVG/1.1/DTD/svg11.dtd">
<svg version="1.1" id="Warstwa_1" xmlns="http://www.w3.org/2000/svg" xmlns:xlink="http://www.w3.org/1999/xlink" x="0px" y="0px"
	 width="183.5px" height="162.6px" viewBox="0 0 183.5 162.6" enable-background="new 0 0 183.5 162.6" xml:space="preserve">
<ellipse fill="#878787" cx="91.3" cy="87" rx="91.3" ry="75.7"/>
<ellipse fill="#EDEDED" cx="92" cy="80.7" rx="90" ry="73.3"/>
<radialGradient id="SVGID_1_" cx="182.9209" cy="41.1667" r="73.4232" gradientTransform="matrix(0.8087 0 0 -0.7462 -58.0378 125.2556)" gradientUnits="userSpaceOnUse">
	<stop  offset="0" style="stop-color:#A6A6A5"/>
	<stop  offset="0.4009" style="stop-color:#C8C8C8"/>
	<stop  offset="0.772" style="stop-color:#E2E2E1"/>
	<stop  offset="0.9944" style="stop-color:#EBEBEB"/>
</radialGradient>
<ellipse fill="url(#SVGID_1_)" cx="92.7" cy="81.5" rx="72.8" ry="54.7"/>
<radialGradient id="SVGID_2_" cx="128.7246" cy="95.9954" r="47.1597" gradientTransform="matrix(1 0 0 -1 0.105 162.3599)" gradientUnits="userSpaceOnUse">
	<stop  offset="0" style="stop-color:#A6A6A5"/>
	<stop  offset="8.116193e-002" style="stop-color:#ADADAD"/>
	<stop  offset="0.4526" style="stop-color:#CACACB"/>
	<stop  offset="0.7701" style="stop-color:#DCDCDD"/>
	<stop  offset="0.9944" style="stop-color:#E2E2E4"/>
</radialGradient>
<path fill="url(#SVGID_2_)" d="M150,45.7c22.6,22.1,23.8,62.5-30.3,63.2l5-20C124.8,88.9,139.9,38.2,150,45.7z"/>
<radialGradient id="SVGID_3_" cx="89.6245" cy="57.7014" r="35.9624" gradientTransform="matrix(1 0 0 -0.8492 0.105 145.5537)" gradientUnits="userSpaceOnUse">
	<stop  offset="0" style="stop-color:#A6A6A5"/>
	<stop  offset="0.2554" style="stop-color:#C3C3C2"/>
	<stop  offset="0.5207" style="stop-color:#D9D9D9"/>
	<stop  offset="0.7725" style="stop-color:#E6E6E6"/>
	<stop  offset="0.9944" style="stop-color:#EBEBEB"/>
</radialGradient>
<path fill="url(#SVGID_3_)" d="M132.7,86.4c-0.9-0.4-2.2-0.8-2.6-1.8c-0.7-1.9-0.1-4.3,0.6-6.1c0.2-0.4,0.9-0.6,1.5-0.7
	c-6.5-11.2-22.4-19-40.8-19c-24.3,0-44.1,13.6-44.1,30.5s19.7,30.5,44.1,30.5c24.3,0,44.1-13.6,44.1-30.5c0-0.7,0-1.4-0.1-2
	C134.5,87,133.6,86.7,132.7,86.4z"/>
<linearGradient id="SVGID_4_" gradientUnits="userSpaceOnUse" x1="2.895" y1="81.6594" x2="180.8945" y2="81.6594" gradientTransform="matrix(1 0 0 -1 0.105 162.3599)">
	<stop  offset="0" style="stop-color:#EEEBE9"/>
	<stop  offset="0" style="stop-color:#E7E3E0"/>
	<stop  offset="3.752073e-002" style="stop-color:#D8D5D3"/>
	<stop  offset="0.1095" style="stop-color:#B1B1AF"/>
	<stop  offset="0.2078" style="stop-color:#737777"/>
	<stop  offset="0.264" style="stop-color:#4C5354"/>
	<stop  offset="0.2677" style="stop-color:#4E5556"/>
	<stop  offset="0.3751" style="stop-color:#909495"/>
	<stop  offset="0.4654" style="stop-color:#C0C2C3"/>
	<stop  offset="0.5341" style="stop-color:#DEDEDF"/>
	<stop  offset="0.573" style="stop-color:#E9E9EA"/>
	<stop  offset="0.6348" style="stop-color:#DFE0E1"/>
	<stop  offset="0.7388" style="stop-color:#C5C7CA"/>
	<stop  offset="0.8715" style="stop-color:#9BA0A5"/>
	<stop  offset="0.8764" style="stop-color:#999EA3"/>
	<stop  offset="1" style="stop-color:#DADADA"/>
	<stop  offset="1" style="stop-color:#B2B2B2"/>
</linearGradient>
<ellipse fill="none" stroke="url(#SVGID_4_)" stroke-miterlimit="10" cx="92" cy="80.7" rx="88.5" ry="72"/>
<linearGradient id="SVGID_5_" gradientUnits="userSpaceOnUse" x1="6.395" y1="82.1594" x2="177.4941" y2="82.1594" gradientTransform="matrix(1 0 0 -1 0.105 162.3599)">
	<stop  offset="0" style="stop-color:#EEEBE9"/>
	<stop  offset="0" style="stop-color:#E7E3E0"/>
	<stop  offset="3.752073e-002" style="stop-color:#D8D5D3"/>
	<stop  offset="0.1095" style="stop-color:#B1B1AF"/>
	<stop  offset="0.2078" style="stop-color:#737777"/>
	<stop  offset="0.264" style="stop-color:#4C5354"/>
	<stop  offset="0.2677" style="stop-color:#4E5556"/>
	<stop  offset="0.3751" style="stop-color:#909495"/>
	<stop  offset="0.4654" style="stop-color:#C0C2C3"/>
	<stop  offset="0.5341" style="stop-color:#DEDEDF"/>
	<stop  offset="0.573" style="stop-color:#E9E9EA"/>
	<stop  offset="0.6348" style="stop-color:#DFE0E1"/>
	<stop  offset="0.7388" style="stop-color:#C5C7CA"/>
	<stop  offset="0.8715" style="stop-color:#9BA0A5"/>
	<stop  offset="0.8764" style="stop-color:#999EA3"/>
	<stop  offset="1" style="stop-color:#DADADA"/>
	<stop  offset="1" style="stop-color:#B2B2B2"/>
</linearGradient>
<path fill="none" stroke="url(#SVGID_5_)" stroke-miterlimit="10" d="M177.1,80.7c0,37.8-38.6,68.4-85.1,68.4
	c-46.4,0.1-85-30.6-85-68.4c0-37.8,38.6-69.4,85-69.4C138.4,11.3,177.1,42.9,177.1,80.7z"/>
<linearGradient id="SVGID_6_" gradientUnits="userSpaceOnUse" x1="9.6201" y1="82.6594" x2="174.1699" y2="82.6594" gradientTransform="matrix(1 0 0 -1 0.105 162.3599)">
	<stop  offset="0" style="stop-color:#EEEBE9"/>
	<stop  offset="0" style="stop-color:#E7E3E0"/>
	<stop  offset="3.752073e-002" style="stop-color:#D8D5D3"/>
	<stop  offset="0.1095" style="stop-color:#B1B1AF"/>
	<stop  offset="0.2078" style="stop-color:#737777"/>
	<stop  offset="0.264" style="stop-color:#4C5354"/>
	<stop  offset="0.2677" style="stop-color:#4E5556"/>
	<stop  offset="0.3751" style="stop-color:#909495"/>
	<stop  offset="0.4654" style="stop-color:#C0C2C3"/>
	<stop  offset="0.5341" style="stop-color:#DEDEDF"/>
	<stop  offset="0.573" style="stop-color:#E9E9EA"/>
	<stop  offset="0.6348" style="stop-color:#DFE0E1"/>
	<stop  offset="0.7388" style="stop-color:#C5C7CA"/>
	<stop  offset="0.8715" style="stop-color:#9BA0A5"/>
	<stop  offset="0.8764" style="stop-color:#999EA3"/>
	<stop  offset="1" style="stop-color:#DADADA"/>
	<stop  offset="1" style="stop-color:#B2B2B2"/>
</linearGradient>
<path fill="none" stroke="url(#SVGID_6_)" stroke-width="0.75" stroke-miterlimit="10" d="M173.9,80.7c0,35.9-37.8,65-81.9,65
	c-44.1,0-81.9-29.1-81.9-65c0-35.9,37.8-67,81.9-67C136.1,13.7,173.9,44.8,173.9,80.7z"/>
<linearGradient id="SVGID_7_" gradientUnits="userSpaceOnUse" x1="33.9146" y1="92.9602" x2="55.4443" y2="92.9602" gradientTransform="matrix(1 0 0 -1 0.105 162.3599)">
	<stop  offset="5.617906e-003" style="stop-color:#E2E2E4"/>
	<stop  offset="0.2299" style="stop-color:#DCDCDD"/>
	<stop  offset="0.5474" style="stop-color:#CACACB"/>
	<stop  offset="0.9188" style="stop-color:#ADADAD"/>
	<stop  offset="1" style="stop-color:#A6A6A5"/>
</linearGradient>
<path fill="url(#SVGID_7_)" d="M34.1,46.5c0,0-2.8,29,17.6,45.8L55.5,77L34.1,46.5z"/>
<linearGradient id="SVGID_8_" gradientUnits="userSpaceOnUse" x1="12.6201" y1="83.1096" x2="171.1699" y2="83.1096" gradientTransform="matrix(1 0 0 -1 0.105 162.3599)">
	<stop  offset="0" style="stop-color:#EEEBE9"/>
	<stop  offset="0" style="stop-color:#E7E3E0"/>
	<stop  offset="3.752073e-002" style="stop-color:#D8D5D3"/>
	<stop  offset="0.1095" style="stop-color:#B1B1AF"/>
	<stop  offset="0.2078" style="stop-color:#737777"/>
	<stop  offset="0.264" style="stop-color:#4C5354"/>
	<stop  offset="0.2677" style="stop-color:#4E5556"/>
	<stop  offset="0.3751" style="stop-color:#909495"/>
	<stop  offset="0.4654" style="stop-color:#C0C2C3"/>
	<stop  offset="0.5341" style="stop-color:#DEDEDF"/>
	<stop  offset="0.573" style="stop-color:#E9E9EA"/>
	<stop  offset="0.6348" style="stop-color:#DFE0E1"/>
	<stop  offset="0.7388" style="stop-color:#C5C7CA"/>
	<stop  offset="0.8715" style="stop-color:#9BA0A5"/>
	<stop  offset="0.8764" style="stop-color:#999EA3"/>
	<stop  offset="1" style="stop-color:#DADADA"/>
	<stop  offset="1" style="stop-color:#B2B2B2"/>
</linearGradient>
<path fill="none" stroke="url(#SVGID_8_)" stroke-width="0.75" stroke-miterlimit="10" d="M170.9,80.7c0,34.1-37,61.8-78.9,61.8
	c-41.9,0-78.9-27.7-78.9-61.8C13.1,46.6,50.1,16,92,16C133.9,16,170.9,46.6,170.9,80.7z"/>
<linearGradient id="SVGID_9_" gradientUnits="userSpaceOnUse" x1="15.5449" y1="83.6594" x2="168.2441" y2="83.6594" gradientTransform="matrix(1 0 0 -1 0.105 162.3599)">
	<stop  offset="0" style="stop-color:#EEEBE9"/>
	<stop  offset="0" style="stop-color:#E7E3E0"/>
	<stop  offset="3.752073e-002" style="stop-color:#D8D5D3"/>
	<stop  offset="0.1095" style="stop-color:#B1B1AF"/>
	<stop  offset="0.2078" style="stop-color:#737777"/>
	<stop  offset="0.264" style="stop-color:#4C5354"/>
	<stop  offset="0.2677" style="stop-color:#4E5556"/>
	<stop  offset="0.3751" style="stop-color:#909495"/>
	<stop  offset="0.4654" style="stop-color:#C0C2C3"/>
	<stop  offset="0.5341" style="stop-color:#DEDEDF"/>
	<stop  offset="0.573" style="stop-color:#E9E9EA"/>
	<stop  offset="0.6348" style="stop-color:#DFE0E1"/>
	<stop  offset="0.7388" style="stop-color:#C5C7CA"/>
	<stop  offset="0.8715" style="stop-color:#9BA0A5"/>
	<stop  offset="0.8764" style="stop-color:#999EA3"/>
	<stop  offset="1" style="stop-color:#DADADA"/>
	<stop  offset="1" style="stop-color:#B2B2B2"/>
</linearGradient>
<path fill="none" stroke="url(#SVGID_9_)" stroke-width="0.5" stroke-miterlimit="10" d="M168.1,80.7c0,32.4-36.3,58.7-76.1,58.7
	s-76.1-26.3-76.1-58.7C15.9,48.3,52.2,18,92,18C131.8,18.1,168.1,48.3,168.1,80.7z"/>
<path opacity="9.999999e-002" fill="#FFFFFF" enable-background="new    " d="M55.5,77l-3.8,15.3c-1.6-0.9-3.1-2.1-4.4-3.4
	c0.1-5.4,2.2-10.4,5.9-14.8L55.5,77z"/>
<linearGradient id="SVGID_10_" gradientUnits="userSpaceOnUse" x1="18.145" y1="84.1096" x2="165.6445" y2="84.1096" gradientTransform="matrix(1 0 0 -1 0.105 162.3599)">
	<stop  offset="0" style="stop-color:#EEEBE9"/>
	<stop  offset="0" style="stop-color:#E7E3E0"/>
	<stop  offset="3.752073e-002" style="stop-color:#D8D5D3"/>
	<stop  offset="0.1095" style="stop-color:#B1B1AF"/>
	<stop  offset="0.2078" style="stop-color:#737777"/>
	<stop  offset="0.264" style="stop-color:#4C5354"/>
	<stop  offset="0.2677" style="stop-color:#4E5556"/>
	<stop  offset="0.3751" style="stop-color:#909495"/>
	<stop  offset="0.4654" style="stop-color:#C0C2C3"/>
	<stop  offset="0.5341" style="stop-color:#DEDEDF"/>
	<stop  offset="0.573" style="stop-color:#E9E9EA"/>
	<stop  offset="0.6348" style="stop-color:#DFE0E1"/>
	<stop  offset="0.7388" style="stop-color:#C5C7CA"/>
	<stop  offset="0.8715" style="stop-color:#9BA0A5"/>
	<stop  offset="0.8764" style="stop-color:#999EA3"/>
	<stop  offset="1" style="stop-color:#DADADA"/>
	<stop  offset="1" style="stop-color:#B2B2B2"/>
</linearGradient>
<path fill="none" stroke="url(#SVGID_10_)" stroke-width="0.5" stroke-miterlimit="10" d="M165.5,80.7c0,30.8-35.7,55.8-73.5,55.8
	s-73.5-25-73.5-55.8C18.5,50,54.2,20,92,20S165.5,50,165.5,80.7z"/>
<g>
	
		<radialGradient id="SVGID_11_" cx="92.0952" cy="66.0598" r="31.9406" gradientTransform="matrix(1 0 0 -1 0.105 162.3599)" gradientUnits="userSpaceOnUse">
		<stop  offset="0" style="stop-color:#A6A6A5"/>
		<stop  offset="1.455038e-002" style="stop-color:#A7A7A6"/>
		<stop  offset="0.6771" style="stop-color:#E1E1E1"/>
		<stop  offset="0.9944" style="stop-color:#F8F8F8"/>
	</radialGradient>
	<path fill="url(#SVGID_11_)" d="M132.8,76.5v12.3c0,15.1-18.2,27.3-40.6,27.3c-22.4,0-40.6-12.2-40.6-27.3V76.5h0.1
		c10.4,8.1,24.7,13,40.5,13C108,89.5,122.4,84.5,132.8,76.5L132.8,76.5z"/>
</g>
<radialGradient id="SVGID_12_" cx="91.3945" cy="74.6599" r="25.0266" gradientTransform="matrix(1 0 0 -1 0.105 162.3599)" gradientUnits="userSpaceOnUse">
	<stop  offset="0" style="stop-color:#A6A6A5"/>
	<stop  offset="1.455038e-002" style="stop-color:#A7A7A6"/>
	<stop  offset="0.6771" style="stop-color:#E1E1E1"/>
	<stop  offset="0.9944" style="stop-color:#F8F8F8"/>
</radialGradient>
<path fill="url(#SVGID_12_)" d="M126.1,81c-3.8,8.3-17.8,14.4-34.4,14.4C74.4,95.4,60,88.8,56.9,80c9.8,6,22.1,9.5,35.4,9.5
	C104.9,89.5,116.6,86.3,126.1,81z"/>
<linearGradient id="SVGID_13_" gradientUnits="userSpaceOnUse" x1="0.395" y1="81.6599" x2="183.3945" y2="81.6599" gradientTransform="matrix(1 0 0 -1 0.105 162.3599)">
	<stop  offset="5.617904e-003" style="stop-color:#F8F8F8"/>
	<stop  offset="0.537" style="stop-color:#D9D9DA"/>
	<stop  offset="1" style="stop-color:#BABABC"/>
</linearGradient>
<ellipse fill="none" stroke="url(#SVGID_13_)" stroke-width="2" stroke-miterlimit="10" cx="92" cy="80.7" rx="90.5" ry="73.7"/>
<radialGradient id="SVGID_14_" cx="92.0947" cy="117.3596" r="51.3007" gradientTransform="matrix(1 0 0 -1 0.105 162.3599)" gradientUnits="userSpaceOnUse">
	<stop  offset="0" style="stop-color:#A6A6A5"/>
	<stop  offset="1.455038e-002" style="stop-color:#A7A7A6"/>
	<stop  offset="0.6771" style="stop-color:#E1E1E1"/>
	<stop  offset="0.9944" style="stop-color:#F8F8F8"/>
</radialGradient>
<ellipse fill="url(#SVGID_14_)" cx="92.2" cy="45" rx="57.3" ry="44.5"/>
<linearGradient id="SVGID_15_" gradientUnits="userSpaceOnUse" x1="51.2158" y1="82.6672" x2="122.0172" y2="128.3779" gradientTransform="matrix(1 0 0 -1 0.105 162.3599)">
	<stop  offset="3.763428e-002" style="stop-color:#A63E06"/>
	<stop  offset="0.4067" style="stop-color:#8E2600"/>
	<stop  offset="0.55" style="stop-color:#922A00"/>
	<stop  offset="0.6986" style="stop-color:#9F3700"/>
	<stop  offset="0.8226" style="stop-color:#AF4700"/>
	<stop  offset="0.8576" style="stop-color:#AF500C"/>
	<stop  offset="0.9202" style="stop-color:#B0672A"/>
	<stop  offset="1" style="stop-color:#B18B5A"/>
</linearGradient>
<ellipse fill="url(#SVGID_15_)" cx="92.2" cy="53.3" rx="41.4" ry="32.1"/>
<radialGradient id="SVGID_16_" cx="180.7285" cy="-43.3191" r="41.5474" gradientTransform="matrix(0.819 0 0 -0.4594 -55.8163 44.1997)" gradientUnits="userSpaceOnUse">
	<stop  offset="0.3763" style="stop-color:#A63E06"/>
	<stop  offset="0.8199" style="stop-color:#962E02"/>
	<stop  offset="1" style="stop-color:#8E2600"/>
</radialGradient>
<ellipse fill="url(#SVGID_16_)" cx="92.2" cy="64.1" rx="33.9" ry="19.1"/>
<path opacity="9.999999e-002" fill="#FFFFFF" enable-background="new    " d="M55.5,77l-3.8,15.3c-1.6-0.9-3.1-2.1-4.4-3.4
	c0.1-5.4,2.2-10.4,5.9-14.8L55.5,77z"/>
<g opacity="0.3">
	
		<radialGradient id="SVGID_17_" cx="92.0981" cy="65.2986" r="32.2315" gradientTransform="matrix(1 0 0 -1 0.105 162.3599)" gradientUnits="userSpaceOnUse">
		<stop  offset="5.618000e-003" style="stop-color:#C7C7C8"/>
		<stop  offset="0.5173" style="stop-color:#E2E1E3"/>
		<stop  offset="1" style="stop-color:#B2B2B2"/>
		<stop  offset="1" style="stop-color:#CFD2D5"/>
	</radialGradient>
	<path fill="url(#SVGID_17_)" d="M51.6,77.5c0,0,0,2,0,5.6c0,1.8,0,3.9,0,6.4c0.1,2.5,0.7,5.2,2,7.9c1.3,2.7,3.4,5.3,5.9,7.7
		c2.6,2.3,5.7,4.4,9.1,6c6.8,3.3,14.9,5,23,5c4,0,8.1-0.3,12-1.1c3.9-0.8,7.7-2,11.1-3.5c3.4-1.6,6.6-3.5,9.2-5.7
		c2.7-2.2,4.8-4.8,6.2-7.4c0.7-1.3,1.3-2.7,1.7-4c0.4-1.3,0.6-2.6,0.7-3.8s0.1-2.4,0.1-3.4c0-1.1,0-2,0-2.9c0-3.5,0-5.6,0-5.6h0.1
		c0,0,0.1,2,0.2,5.6c0,0.9,0.1,1.9,0.1,2.9c0,1.1,0.1,2.2,0,3.5c-0.1,1.3-0.3,2.6-0.7,4c-0.4,1.4-1,2.7-1.7,4.1
		c-1.5,2.7-3.6,5.4-6.3,7.7c-2.7,2.4-5.9,4.4-9.4,6c-3.5,1.6-7.3,2.8-11.3,3.6c-3.9,0.8-8.1,1.2-12.2,1.2
		c-8.2-0.1-16.4-1.9-23.4-5.2c-3.5-1.7-6.6-3.8-9.2-6.2c-2.6-2.4-4.7-5.1-6-8c-1.4-2.8-1.9-5.7-1.9-8.2s0.1-4.6,0.1-6.4
		C51.5,79.5,51.5,77.5,51.6,77.5L51.6,77.5z"/>
</g>
<linearGradient id="SVGID_18_" gradientUnits="userSpaceOnUse" x1="86.1235" y1="8.2874" x2="98.5244" y2="8.2874" gradientTransform="matrix(1 0 0 -1 0.105 162.3599)">
	<stop  offset="0" style="stop-color:#FFFFFF;stop-opacity:0.1"/>
	<stop  offset="1" style="stop-color:#FFFFFF"/>
</linearGradient>
<path fill="url(#SVGID_18_)" d="M86.2,153.3c0,0,3.7-0.1,4.2,0s2-0.1,2.6,0s2.2,0,2.9,0c0.7,0.1,1.6-0.1,2.1,0s0.7,0.3,0.5,0.3
	s-0.9,0-1.5,0s-0.9-0.1-1.2,0.1c-0.3,0.2-0.1,0.3-0.5,0.5c-0.4,0.3-0.7,0.5-1.3,0.5c-0.6-0.1-0.9,0.1-1.7,0.1c-0.7,0-1.2,0.2-1.7,0
	s-0.5-0.2-0.8-0.5c-0.3-0.3-0.3-0.6-0.7-0.7c-0.4-0.1-0.8-0.2-1-0.2c-0.2,0-0.5,0-0.9,0C86.7,153.4,86.4,153.4,86.2,153.3
	C86.2,153.3,86.2,153.3,86.2,153.3z"/>
<linearGradient id="SVGID_19_" gradientUnits="userSpaceOnUse" x1="91.3208" y1="158.8411" x2="91.3208" y2="161.4656" gradientTransform="matrix(1 0 0 -1 0.105 162.3599)">
	<stop  offset="0" style="stop-color:#FFFFFF;stop-opacity:0.1"/>
	<stop  offset="1" style="stop-color:#FFFFFF"/>
</linearGradient>
<path fill="url(#SVGID_19_)" d="M85.2,1.3c0,0,3.7-0.5,4.2-0.4c0.5,0.1,2.1-0.1,2.7,0c0.6,0.1,2.2-0.1,2.9,0C95.8,1,96.8,1,97.2,1.1
	c0.5,0.1,0.5,0.5,0.4,0.5c-0.2,0-0.9,0-1.5,0c-0.5,0-0.9-0.1-1.2,0.2c-0.3,0.3-0.1,0.4-0.5,0.7c-0.4,0.3-0.7,0.7-1.3,0.7
	c-0.6-0.1-0.9,0.2-1.7,0.2c-0.7,0-1.2,0.3-1.7,0c-0.5-0.3-0.5-0.3-0.8-0.7c-0.3-0.3-0.3-0.8-0.7-0.9c-0.4-0.1-0.8-0.2-1-0.2
	c-0.2,0-0.5,0-0.9,0c-0.5,0-0.8,0-0.9-0.1C85.2,1.3,85.2,1.3,85.2,1.3z"/>
<ellipse fill="#FFFFFF" cx="92.2" cy="21.2" rx="2.4" ry="0.5"/>
<path fill="#FFFFFF" d="M152.2,26.9c0,0,0.3,0.1,0.9,0.3c0.3,0.1,0.6,0.2,1,0.4c0.4,0.2,0.8,0.3,1.3,0.6c0.5,0.3,1,0.5,1.5,0.9
	c0.5,0.3,1,0.7,1.6,1.1c0.5,0.4,1.1,0.8,1.6,1.3s1,1,1.6,1.5c0.5,0.5,1,1.1,1.4,1.6c0.5,0.5,0.9,1.1,1.3,1.6c0.8,1,1.5,2.1,2,3
	c0.6,0.9,0.9,1.7,1.2,2.3c0.3,0.6,0.4,0.9,0.4,0.9s-0.3-0.2-0.7-0.7c-0.5-0.4-1.1-1-1.8-1.8c-0.4-0.4-0.8-0.8-1.2-1.2
	c-0.4-0.4-0.8-0.9-1.3-1.4c-0.9-1-1.8-1.9-2.8-2.9c-0.5-0.5-1-1-1.4-1.4c-0.5-0.5-0.9-0.9-1.4-1.4c-0.5-0.4-0.9-0.9-1.3-1.3
	c-0.4-0.4-0.9-0.8-1.2-1.1c-0.8-0.7-1.5-1.2-1.9-1.7C152.4,27.1,152.2,26.9,152.2,26.9z"/>
<linearGradient id="SVGID_20_" gradientUnits="userSpaceOnUse" x1="56.0293" y1="96.3528" x2="130.3228" y2="122.5289" gradientTransform="matrix(1 0 0 -1 0.105 162.3599)">
	<stop  offset="0" style="stop-color:#B18B5A"/>
	<stop  offset="1.572707e-003" style="stop-color:#B18958"/>
	<stop  offset="3.152833e-002" style="stop-color:#AD6E3B"/>
	<stop  offset="6.307880e-002" style="stop-color:#AA5923"/>
	<stop  offset="9.694402e-002" style="stop-color:#A84A13"/>
	<stop  offset="0.1345" style="stop-color:#A64109"/>
	<stop  offset="0.1828" style="stop-color:#A63E06"/>
	<stop  offset="0.3655" style="stop-color:#962E02"/>
	<stop  offset="0.525" style="stop-color:#8E2600"/>
	<stop  offset="0.6493" style="stop-color:#922A00"/>
	<stop  offset="0.7782" style="stop-color:#9F3700"/>
	<stop  offset="0.8858" style="stop-color:#AF4700"/>
	<stop  offset="0.9083" style="stop-color:#AF500C"/>
	<stop  offset="0.9486" style="stop-color:#B0672A"/>
	<stop  offset="1" style="stop-color:#B18B5A"/>
</linearGradient>
<ellipse fill="url(#SVGID_20_)" cx="92.2" cy="53.3" rx="39.4" ry="30.6"/>
<g>
	
		<radialGradient id="SVGID_21_" cx="88.0049" cy="44.3518" r="31.3954" gradientTransform="matrix(1 0 0 -0.7883 0.105 94.8363)" gradientUnits="userSpaceOnUse">
		<stop  offset="0" style="stop-color:#EFD89C"/>
		<stop  offset="7.031842e-002" style="stop-color:#ECD495"/>
		<stop  offset="0.3111" style="stop-color:#E6C882"/>
		<stop  offset="0.5589" style="stop-color:#E1C177"/>
		<stop  offset="0.8231" style="stop-color:#E0BF73"/>
		<stop  offset="1" style="stop-color:#D39737"/>
	</radialGradient>
	<path fill="url(#SVGID_21_)" d="M76.4,37.5l-3.6,1c0,0-2,1.3-3.6,2.3c-1.7,1-3.5,1.8-4.5,2.8s-1.2,1.8-2.2,2.7
		c-1,0.8-1.2,1-2.2,2.5s-1.8,3.8-2.7,5c-0.8,1.2-1.5,2.3-1.3,3.8c0.2,1.5-0.4,4,0,5c0.4,1,0.4,5.1,1.5,6.6c1.2,1.5,3.8,4.1,5.1,5.6
		c1.3,1.5,4.6,3.8,6.6,5s7.6,3.3,9.8,3.8c2.2,0.5,3.5,0.8,7.1,1.3s9.3-1.2,10-1.3c0.7-0.2,3,0.8,5,0.2c2-0.7,2.2-2,3.6-2.5
		c1.5-0.5,2.2-1.2,4-2s3.5-2.7,4.6-3.8c1.2-1.2,2.2-2.8,2.7-4s1.5-3.8,2.2-4.6c0.7-0.8,1-2.3,1.2-3.8s0.7-1.7,0-2.8
		s-2.2-5.8-2.7-6.8s-0.5-2.8-1.7-4.1c-1.2-1.3-2.7-2.7-3.8-3.8c-1.1-1.1-1.8-2-3-2.8s-2-1.2-3.5-1.8c-1.5-0.7-2-1-3.2-1.8
		c-1.2-0.8-5-1.8-7-2.3s-3.5-1.7-5.6-1.7c-2.1,0-3.3-1-5.6,0c-2.3,1-3.3,1.3-4.5,1.5C77.9,36.9,76.4,37.5,76.4,37.5z"/>
	
		<radialGradient id="SVGID_22_" cx="98.167" cy="113.9436" r="37.6251" gradientTransform="matrix(1 0 0 -1 0.105 162.3599)" gradientUnits="userSpaceOnUse">
		<stop  offset="0" style="stop-color:#E0BF73"/>
		<stop  offset="0.1177" style="stop-color:#E0BF73"/>
		<stop  offset="0.4009" style="stop-color:#E1C377"/>
		<stop  offset="0.6666" style="stop-color:#E6CE82"/>
		<stop  offset="0.9246" style="stop-color:#ECE095"/>
		<stop  offset="1" style="stop-color:#EFE79C"/>
	</radialGradient>
	<path fill="url(#SVGID_22_)" d="M71.5,42.4c-0.8,0.8-2,1.8-3.5,2.7c-1.5,0.9-2.7,1.8-4,3s-1.5,2.8-2.5,3.8s-2,4.1-2,6.3
		c0,2.2-1,4.5,0,6.8s2,5.8,4.1,7.5s3.3,4.5,5.5,5.5c2.2,1,4.5,2.2,7.5,2.8s4.5,1.8,7.3,2c2.8,0.2,4.5,0.3,7.5,0
		c3-0.3,3.8-0.7,6.1-0.7s5.8-1.3,5.8-1.3s0.2-1.2,2.3-2.3c2.2-1.2,4-1.7,5.1-3.5c1.1-1.8,2.7-2.8,3.6-4.8c1-2,2.2-3,2.2-5.1
		c0-2.1-0.5-7.8-1.2-9s-0.7-3.6-1.8-5c-1.2-1.3-1.8-1.3-2.5-2s-2-4.3-3.6-5c-1.6-0.7-4.3-0.5-6-1.7c-1.7-1.2-3.2-3.2-6.6-3.8
		c-3.4-0.6-5.1-1.3-7.8-1s-3.3,0.7-5.6,1c-2.3,0.3-3,0.3-4.6,1.3C75.1,40.9,71.5,42.4,71.5,42.4z"/>
	
		<linearGradient id="SVGID_23_" gradientUnits="userSpaceOnUse" x1="73.522" y1="113.637" x2="85.9155" y2="113.637" gradientTransform="matrix(1 0 0 -1 0.105 162.3599)">
		<stop  offset="0" style="stop-color:#D4BB5C"/>
		<stop  offset="9.583753e-002" style="stop-color:#CCB356"/>
		<stop  offset="0.3849" style="stop-color:#BAA047"/>
		<stop  offset="0.6827" style="stop-color:#B0953F"/>
		<stop  offset="1" style="stop-color:#AC913C"/>
	</linearGradient>
	<path fill="url(#SVGID_23_)" d="M86,54.4c0,0-4.4-12.2-5.1-12.2c-0.7,0-5.1,1.1-6.1,1.9s-1.6,1.5-0.9,2.4
		c0.7,0.9,10.6,8.5,11.1,8.7C85.5,55.4,86.2,54.9,86,54.4z"/>
	
		<linearGradient id="SVGID_24_" gradientUnits="userSpaceOnUse" x1="66.5596" y1="110.3391" x2="84.5381" y2="110.3391" gradientTransform="matrix(1 0 0 -1 0.105 162.3599)">
		<stop  offset="0" style="stop-color:#D4BB5C"/>
		<stop  offset="9.583753e-002" style="stop-color:#CCB356"/>
		<stop  offset="0.3849" style="stop-color:#BAA047"/>
		<stop  offset="0.6827" style="stop-color:#B0953F"/>
		<stop  offset="1" style="stop-color:#AC913C"/>
	</linearGradient>
	<path fill="url(#SVGID_24_)" d="M72.9,47.2c-0.3-0.1-0.6-0.3-1.5,0c-0.9,0.3-2.6,1.2-2.7,1.7c-0.1,0.5-1.1,1.3-1.3,2.1
		c-0.2,0.8-0.8,1.7-0.7,2.2c0.1,0.5,0.4,0.8,0.7,0.9c0.3,0.1,16.7,2.9,16.7,2.9s0.8-0.5,0.5-0.8c-0.3-0.3-1.1-1.6-1.6-1.7
		c-0.5-0.1-3.3-2.3-4-2.8S72.9,47.2,72.9,47.2z"/>
	
		<linearGradient id="SVGID_25_" gradientUnits="userSpaceOnUse" x1="64.2017" y1="103.0598" x2="83.7603" y2="103.0598" gradientTransform="matrix(1 0 0 -1 0.105 162.3599)">
		<stop  offset="0" style="stop-color:#D4BB5C"/>
		<stop  offset="9.583753e-002" style="stop-color:#CCB356"/>
		<stop  offset="0.3849" style="stop-color:#BAA047"/>
		<stop  offset="0.6827" style="stop-color:#B0953F"/>
		<stop  offset="1" style="stop-color:#AC913C"/>
	</linearGradient>
	<path fill="url(#SVGID_25_)" d="M66.3,54.8c-0.7,0.3-1.5,0.7-1.8,1.7s-0.1,4.2,0,5.1c0.1,0.9,1.3,2.2,1.8,2.2s15.4-4.2,16.2-4.5
		c0.7-0.3,1.4-0.7,1.4-1.1c0-0.4-0.2-0.7-0.8-0.8C82.5,57.2,66.3,54.8,66.3,54.8z"/>
	
		<linearGradient id="SVGID_26_" gradientUnits="userSpaceOnUse" x1="65.5" y1="96.7219" x2="84.208" y2="96.7219" gradientTransform="matrix(1 0 0 -1 0.105 162.3599)">
		<stop  offset="0" style="stop-color:#D4BB5C"/>
		<stop  offset="9.583753e-002" style="stop-color:#CCB356"/>
		<stop  offset="0.3849" style="stop-color:#BAA047"/>
		<stop  offset="0.6827" style="stop-color:#B0953F"/>
		<stop  offset="1" style="stop-color:#AC913C"/>
	</linearGradient>
	<path fill="url(#SVGID_26_)" d="M82.7,59.8c0,0-13.9,4-14.7,4.2s-1.9,0.7-2.3,1.1c-0.3,0.4-0.1,1.7,0.4,2.6
		c0.5,0.9,1.1,2.1,2.1,2.5c1,0.4,1.3,0.7,2.3,1.1s1.5,0.3,2.1,0s2.4-1.4,3.7-2.3c1.3-0.9,4.3-3.4,5.1-4.3c0.8-0.9,2.9-3.8,2.9-3.8
		c0.1-0.5,0.2-0.9,0-1.1C84,59.6,82.7,59.8,82.7,59.8z"/>
	
		<linearGradient id="SVGID_27_" gradientUnits="userSpaceOnUse" x1="73.1001" y1="92.7512" x2="87.3428" y2="92.7512" gradientTransform="matrix(1 0 0 -1 0.105 162.3599)">
		<stop  offset="0" style="stop-color:#D4BB5C"/>
		<stop  offset="9.583753e-002" style="stop-color:#CCB356"/>
		<stop  offset="0.3849" style="stop-color:#BAA047"/>
		<stop  offset="0.6827" style="stop-color:#B0953F"/>
		<stop  offset="1" style="stop-color:#AC913C"/>
	</linearGradient>
	<path fill="url(#SVGID_27_)" d="M85.6,61c-0.7,0.7-2.7,3.3-3.5,4c-0.8,0.7-2.4,2.6-3.4,3.3s-3.5,2.3-4.3,2.8
		c-0.8,0.5-1.2,1.3-1.3,2.3s1.6,2.7,3.2,3.3c1.6,0.6,2.5,0.6,2.7,0.6s2.1,1.1,3.3,1c1.2-0.1,2.8,0,3.2-0.5s1.2-7.1,1.3-8.1
		c0.1-1,0.5-5,0.5-6s-0.1-2.5-0.6-2.7S85.6,61,85.6,61z"/>
	
		<linearGradient id="SVGID_28_" gradientUnits="userSpaceOnUse" x1="87.3071" y1="92.2375" x2="97.6587" y2="92.2375" gradientTransform="matrix(1 0 0 -1 0.105 162.3599)">
		<stop  offset="0" style="stop-color:#D4BB5C"/>
		<stop  offset="9.583753e-002" style="stop-color:#CCB356"/>
		<stop  offset="0.3849" style="stop-color:#BAA047"/>
		<stop  offset="0.6827" style="stop-color:#B0953F"/>
		<stop  offset="1" style="stop-color:#AC913C"/>
	</linearGradient>
	<path fill="url(#SVGID_28_)" d="M88.1,61.9c0,0-0.2,3.8-0.3,4.7c-0.1,0.9-0.2,8-0.4,9c-0.2,1,0.5,2.3,1.5,2.7s2.7,0,3.6,0
		c0.9,0,1.5-0.2,2.7-0.8c1.3-0.6,2.5-0.3,2.5-1.5c0.1-1.1-7.5-11.1-7.7-11.7s-1.1-2.1-1.4-2.4C88.3,61.6,88.1,61.9,88.1,61.9z"/>
	
		<linearGradient id="SVGID_29_" gradientUnits="userSpaceOnUse" x1="89.7852" y1="94.2502" x2="106.5049" y2="94.2502" gradientTransform="matrix(1 0 0 -1 0.105 162.3599)">
		<stop  offset="0" style="stop-color:#D4BB5C"/>
		<stop  offset="9.583753e-002" style="stop-color:#CCB356"/>
		<stop  offset="0.3849" style="stop-color:#BAA047"/>
		<stop  offset="0.6827" style="stop-color:#B0953F"/>
		<stop  offset="1" style="stop-color:#AC913C"/>
	</linearGradient>
	<path fill="url(#SVGID_29_)" d="M89.9,60.9c-0.1,1,0.6,2.6,1.1,3.3c0.5,0.7,4.4,5.9,5,6.7c0.6,0.7,2.2,4,3,4.3c0.8,0.3,3,0,3.7-0.5
		s1.4-1,2.1-1.5s1-1.4,1.1-1.9c0.1-0.5,0.6-0.9,0.7-1.7c0.1-0.8-0.5-2-1.3-2.5s-7.9-3.3-9-3.8c-1.1-0.5-3.5-2.4-4.2-2.4
		C91.4,60.9,89.9,60.9,89.9,60.9z"/>
	
		<linearGradient id="SVGID_30_" gradientUnits="userSpaceOnUse" x1="90.3613" y1="101.8274" x2="110.9926" y2="101.8274" gradientTransform="matrix(1 0 0 -1 0.105 162.3599)">
		<stop  offset="0" style="stop-color:#D4BB5C"/>
		<stop  offset="9.583753e-002" style="stop-color:#CCB356"/>
		<stop  offset="0.3849" style="stop-color:#BAA047"/>
		<stop  offset="0.6827" style="stop-color:#B0953F"/>
		<stop  offset="1" style="stop-color:#AC913C"/>
	</linearGradient>
	<path fill="url(#SVGID_30_)" d="M90.6,59.2c0.3,0.2,3.5,1.9,4.7,2.5c1.2,0.7,5.4,2.2,6.4,2.6c1,0.5,4.2,2.1,4.9,2.3
		c0.7,0.2,1.4,0.1,1.8-0.3c0.3-0.4,2.1-3.2,2-3.4c-0.1-0.2-0.6-1.3-0.4-1.6s1.2-1.8,1-2.5s-0.7-2.3-1.3-3.1
		c-0.6-0.8-1.4-1.5-2.1-1.3c-0.7,0.2-4.3,1.6-5.9,1.7c-1.6,0.1-4.9,0.5-7.1,0.9c-2.2,0.4-3,0.3-3.5,0.6S90.2,58.9,90.6,59.2z"/>
	
		<linearGradient id="SVGID_31_" gradientUnits="userSpaceOnUse" x1="89.7881" y1="110.7825" x2="107.3921" y2="110.7825" gradientTransform="matrix(1 0 0 -1 0.105 162.3599)">
		<stop  offset="0" style="stop-color:#D4BB5C"/>
		<stop  offset="9.583753e-002" style="stop-color:#CCB356"/>
		<stop  offset="0.3849" style="stop-color:#BAA047"/>
		<stop  offset="0.6827" style="stop-color:#B0953F"/>
		<stop  offset="1" style="stop-color:#AC913C"/>
	</linearGradient>
	<path fill="url(#SVGID_31_)" d="M102.9,46.4c-0.2,0-4.9,3.9-6.3,4.6c-1.4,0.7-3.8,2.9-4.7,3.4s-1.9,1.4-2,1.8
		c-0.1,0.4,0.9,0.7,2.2,0.5c1.3-0.2,5.1-0.9,7.1-1.1s5.1-0.7,6.1-1.2c1-0.6,2.1-1.8,2.1-2.3s-0.2-2.7-0.8-3.1
		c-0.7-0.4-1.9-0.9-2.4-1.4C103.8,47,103.9,46.3,102.9,46.4z"/>
	
		<linearGradient id="SVGID_32_" gradientUnits="userSpaceOnUse" x1="88.8735" y1="113.7561" x2="102.3892" y2="113.7561" gradientTransform="matrix(1 0 0 -1 0.105 162.3599)">
		<stop  offset="0" style="stop-color:#D4BB5C"/>
		<stop  offset="9.583753e-002" style="stop-color:#CCB356"/>
		<stop  offset="0.3849" style="stop-color:#BAA047"/>
		<stop  offset="0.6827" style="stop-color:#B0953F"/>
		<stop  offset="1" style="stop-color:#AC913C"/>
	</linearGradient>
	<path fill="url(#SVGID_32_)" d="M102.4,45.6c-0.2,0.1-5.9,4.5-6.6,5.2s-4.6,3.1-5.4,3.6c-0.8,0.5-1.8,0.7-1.4,0
		c0.4-0.7,2-4.2,2.5-4.9s1.6-2.4,2-3.5c0.4-1.1,1.1-2.3,1.7-2.8c0.6-0.5,0.9-1,1.9-0.8c1,0.2,1.3-0.1,2.3,0.7s1.6,1,1.9,1.1
		C101.8,44.4,102.8,45.4,102.4,45.6z"/>
	
		<linearGradient id="SVGID_33_" gradientUnits="userSpaceOnUse" x1="82.855" y1="114.3518" x2="93.6128" y2="114.3518" gradientTransform="matrix(1 0 0 -1 0.105 162.3599)">
		<stop  offset="0" style="stop-color:#D4BB5C"/>
		<stop  offset="9.583753e-002" style="stop-color:#CCB356"/>
		<stop  offset="0.3849" style="stop-color:#BAA047"/>
		<stop  offset="0.6827" style="stop-color:#B0953F"/>
		<stop  offset="1" style="stop-color:#AC913C"/>
	</linearGradient>
	<path fill="url(#SVGID_33_)" d="M83.2,41.2c0.6-0.1,3.1-0.5,3.7-0.7s0.8-0.3,2.1,0s1.6-0.1,2.6,0.3c1,0.4,2.1,0.9,2.1,1.3
		c0,0.4-0.1,2.3-0.8,3.3c-0.7,0.9-1.5,4.1-2.4,5.3c-0.9,1.2-1.9,2.9-2,3.5c-0.1,0.7-0.3,1.5-0.3,1.5s-1,0.1-1-0.6
		c-0.1-0.7-1.3-4-1.5-5.2c-0.3-1.3-1.4-4.2-1.7-5.1S82.5,41.4,83.2,41.2z"/>
	<g>
		
			<radialGradient id="SVGID_34_" cx="83.0889" cy="92.6047" r="5.8484" gradientTransform="matrix(1 0 0 -1 0.105 162.3599)" gradientUnits="userSpaceOnUse">
			<stop  offset="0" style="stop-color:#EFD89C"/>
			<stop  offset="7.537065e-002" style="stop-color:#ECD495"/>
			<stop  offset="0.3334" style="stop-color:#E6C882"/>
			<stop  offset="0.5991" style="stop-color:#E1C177"/>
			<stop  offset="0.8823" style="stop-color:#E0BF73"/>
			<stop  offset="1" style="stop-color:#E0BF73"/>
		</radialGradient>
		<path fill="url(#SVGID_34_)" d="M80.3,77.4c0.2-0.2,0.3-0.6,0.4-0.9c0.1-0.3,0.2-0.7,0.4-1c0.2-0.3,0.4-0.6,0.5-0.9s0.2-0.6,0.3-1
			c0.1-0.3,0.2-0.7,0.3-1c0.1-0.3,0.1-0.7,0.1-1s0.1-0.7,0.2-1l0.2-1v-0.5l-0.1-0.5l-0.1-0.5v-0.5c0.1-0.3,0.2-0.7,0.4-1l0.5-0.9
			l1.9-3.7l0.2,0.1c-0.1,0.2-0.1,0.5-0.1,0.8c0,0.3,0,0.6,0,0.9s-0.1,0.6-0.1,0.9c-0.1,0.3-0.2,0.6-0.3,0.8c-0.4,1.1-1,2.1-1.1,3.2
			c0,0.3,0,0.6,0.1,0.8c0,0.3,0.1,0.6,0.1,0.8c0.1,0.3,0.1,0.6,0.2,0.8l0.3,0.8c0.2,0.5,0.4,1.1,0.7,1.6l0.7,1.6l0,0
			c-0.5-1-1.1-2-1.5-3.1l-0.3-0.8c-0.1-0.3-0.2-0.6-0.2-0.8c-0.1-0.3-0.2-0.6-0.2-0.9s-0.1-0.6-0.1-0.9c0.1-1.2,0.6-2.3,1.1-3.3
			c0.1-0.3,0.2-0.5,0.3-0.8s0.1-0.6,0.1-0.8c0-0.3,0-0.6,0.1-0.9c0-0.3,0-0.6,0.1-0.9l0.2,0.1l-2,3.6c-0.2,0.3-0.3,0.6-0.5,0.9
			c-0.2,0.3-0.3,0.6-0.4,0.9v0.5l0.1,0.5l0.1,0.5v0.5l-0.2,1c-0.1,0.3-0.2,0.7-0.2,1c0,0.3-0.1,0.7-0.2,1c-0.1,0.3-0.2,0.7-0.3,1
			c-0.1,0.3-0.2,0.7-0.3,1c-0.2,0.3-0.4,0.6-0.5,0.9c-0.2,0.3-0.3,0.6-0.4,0.9C80.7,76.8,80.6,77.2,80.3,77.4L80.3,77.4z"/>
		
			<radialGradient id="SVGID_35_" cx="78.2549" cy="90.4788" r="5.1099" gradientTransform="matrix(1 0 0 -1 0.105 162.3599)" gradientUnits="userSpaceOnUse">
			<stop  offset="0" style="stop-color:#EFD89C"/>
			<stop  offset="7.537065e-002" style="stop-color:#ECD495"/>
			<stop  offset="0.3334" style="stop-color:#E6C882"/>
			<stop  offset="0.5991" style="stop-color:#E1C177"/>
			<stop  offset="0.8823" style="stop-color:#E0BF73"/>
			<stop  offset="1" style="stop-color:#E0BF73"/>
		</radialGradient>
		<path fill="url(#SVGID_35_)" d="M79.1,77.2c0.1-0.4,0.2-0.9,0.2-1.3c0.1-0.4,0.1-0.9,0.1-1.3c0-0.2,0-0.5,0.1-0.7
			c0-0.2,0.2-0.4,0.2-0.7c0.1-0.2,0.2-0.4,0.3-0.6l0.2-0.6l0.2-0.6c0.1-0.2,0.2-0.4,0.4-0.6l0.5-0.5c0.1-0.2,0.3-0.3,0.4-0.5
			l0.4-0.5c0.1-0.2,0.2-0.4,0.2-0.6c0.1-0.4,0.2-0.9,0.3-1.3l0.1,0.1c-0.2,0.4-0.5,0.8-0.8,1.2c-0.3,0.4-0.6,0.8-0.9,1.1
			c-0.2,0.2-0.4,0.3-0.6,0.4c-0.2,0.1-0.4,0.2-0.5,0.4c-0.3,0.3-0.7,0.7-1.1,0.9c-0.2,0.1-0.4,0.2-0.7,0.3L77.4,72
			c-0.4,0.1-0.9,0.3-1.3,0.4c-0.4,0.2-0.8,0.4-1.3,0.6l-1.2,0.7l0,0l1.2-0.8c0.4-0.2,0.8-0.5,1.3-0.7c0.4-0.2,0.9-0.3,1.3-0.5
			l0.7-0.2c0.2-0.1,0.4-0.2,0.6-0.3c0.4-0.2,0.7-0.6,1.1-0.9c0.2-0.2,0.4-0.3,0.6-0.4c0.2-0.1,0.4-0.2,0.6-0.4
			c0.7-0.6,1.2-1.4,1.7-2.2l0.2-0.3l-0.1,0.4c-0.1,0.4-0.3,0.8-0.3,1.3c0,0.2-0.1,0.4-0.2,0.6L81.8,70c-0.1,0.2-0.3,0.3-0.4,0.5
			L81,71c-0.2,0.2-0.2,0.4-0.3,0.5l-0.2,0.6l-0.2,0.6c-0.1,0.2-0.2,0.4-0.3,0.6s-0.2,0.3-0.2,0.6c0,0.2-0.1,0.4-0.1,0.6
			C79.6,75.5,79.3,76.4,79.1,77.2L79.1,77.2z"/>
		
			<radialGradient id="SVGID_36_" cx="80.4443" cy="87.2131" r="0.8707" gradientTransform="matrix(1 0 0 -1 0.105 162.3599)" gradientUnits="userSpaceOnUse">
			<stop  offset="0" style="stop-color:#EFD89C"/>
			<stop  offset="7.537065e-002" style="stop-color:#ECD495"/>
			<stop  offset="0.3334" style="stop-color:#E6C882"/>
			<stop  offset="0.5991" style="stop-color:#E1C177"/>
			<stop  offset="0.8823" style="stop-color:#E0BF73"/>
			<stop  offset="1" style="stop-color:#E0BF73"/>
		</radialGradient>
		<path fill="url(#SVGID_36_)" d="M79.4,75.5c0,0,0.1-0.1,0.3-0.1c0.1,0,0.2,0,0.4,0c0.1,0,0.3,0,0.4-0.1c0.3-0.2,0.5-0.3,0.7-0.3
			c0.2-0.1,0.3-0.1,0.3-0.1l0,0c0,0-0.1,0.1-0.3,0.3c-0.2,0.1-0.5,0.3-0.8,0.3c-0.3,0-0.5,0.2-0.8,0.2
			C79.6,75.6,79.4,75.5,79.4,75.5L79.4,75.5z"/>
		
			<radialGradient id="SVGID_37_" cx="79.7271" cy="93.7815" r="3.4438" gradientTransform="matrix(1 0 0 -1 0.105 162.3599)" gradientUnits="userSpaceOnUse">
			<stop  offset="0" style="stop-color:#EFD89C"/>
			<stop  offset="7.537065e-002" style="stop-color:#ECD495"/>
			<stop  offset="0.3334" style="stop-color:#E6C882"/>
			<stop  offset="0.5991" style="stop-color:#E1C177"/>
			<stop  offset="0.8823" style="stop-color:#E0BF73"/>
			<stop  offset="1" style="stop-color:#E0BF73"/>
		</radialGradient>
		<path fill="url(#SVGID_37_)" d="M76.5,71.9c0,0,0.4-0.5,1-1.1s1.7-1.3,2.5-2.1c0.4-0.4,0.9-0.8,1.2-1.2c0.4-0.4,0.7-0.8,1-1.1
			c0.6-0.7,1-1.1,1-1.1l0,0c0,0-0.3,0.5-0.8,1.2c-0.3,0.4-0.6,0.7-1,1.2C81,68,80.5,68.4,80,68.8s-0.9,0.8-1.3,1.2
			c-0.4,0.4-0.8,0.7-1.1,1C77,71.6,76.5,71.9,76.5,71.9L76.5,71.9z"/>
		
			<radialGradient id="SVGID_38_" cx="76.6953" cy="88.4465" r="1.7122" gradientTransform="matrix(1 0 0 -1 0.105 162.3599)" gradientUnits="userSpaceOnUse">
			<stop  offset="0" style="stop-color:#EFD89C"/>
			<stop  offset="7.537065e-002" style="stop-color:#ECD495"/>
			<stop  offset="0.3334" style="stop-color:#E6C882"/>
			<stop  offset="0.5991" style="stop-color:#E1C177"/>
			<stop  offset="0.8823" style="stop-color:#E0BF73"/>
			<stop  offset="1" style="stop-color:#E0BF73"/>
		</radialGradient>
		<path fill="url(#SVGID_38_)" d="M77.9,71.9c0,0,0.1,0.3,0,0.8c0,0.1-0.1,0.2-0.1,0.4c0,0.1-0.1,0.3-0.2,0.4
			c-0.2,0.2-0.4,0.5-0.5,0.7c-0.3,0.5-0.7,1-1,1.3c-0.3,0.3-0.5,0.6-0.5,0.6l0,0c0,0,0.1-0.3,0.3-0.7c0.2-0.4,0.6-0.8,1-1.3
			c0.2-0.2,0.4-0.5,0.5-0.7c0.1-0.1,0.1-0.2,0.1-0.4c0-0.1,0.1-0.2,0.1-0.3C77.8,72.2,77.9,71.9,77.9,71.9L77.9,71.9z"/>
	</g>
	<g>
		
			<radialGradient id="SVGID_39_" cx="100.8945" cy="104.5842" r="6.0111" gradientTransform="matrix(1 0 0 -1 0.105 162.3599)" gradientUnits="userSpaceOnUse">
			<stop  offset="0" style="stop-color:#EFD89C"/>
			<stop  offset="7.537065e-002" style="stop-color:#ECD495"/>
			<stop  offset="0.3334" style="stop-color:#E6C882"/>
			<stop  offset="0.5991" style="stop-color:#E1C177"/>
			<stop  offset="0.8823" style="stop-color:#E0BF73"/>
			<stop  offset="1" style="stop-color:#E0BF73"/>
		</radialGradient>
		<path fill="url(#SVGID_39_)" d="M109,60.3c-0.3-0.2-0.7-0.2-1-0.2s-0.7-0.1-1-0.2c-0.3-0.1-0.7-0.2-1-0.3c-0.3-0.1-0.7,0-1-0.1
			c-0.3,0-0.7,0-1-0.1c-0.3,0-0.7,0.1-1,0.1c-0.3,0.1-0.7,0-1,0h-1l-0.5,0.1l-0.5,0.2L99.5,60L99,60.1c-0.4,0-0.7-0.1-1-0.2l-1-0.3
			l-4-1.1v-0.2c0.2,0,0.5,0,0.8-0.1c0.3-0.1,0.6-0.1,0.9-0.1s0.6-0.1,0.9-0.1c0.3,0,0.6,0.1,0.9,0.1c1.1,0.2,2.3,0.5,3.4,0.3
			c0.3,0,0.5-0.2,0.8-0.2c0.3-0.1,0.5-0.2,0.8-0.3c0.3-0.1,0.5-0.2,0.8-0.4l0.7-0.4c0.5-0.3,1-0.6,1.4-1l1.4-1l0,0
			c-0.9,0.7-1.7,1.5-2.7,2.2l-0.7,0.4c-0.2,0.2-0.5,0.3-0.8,0.4c-0.3,0.1-0.5,0.3-0.8,0.3c-0.3,0.1-0.5,0.2-0.8,0.3
			c-1.2,0.2-2.3-0.2-3.5-0.4c-0.3-0.1-0.6-0.1-0.8-0.1c-0.3,0-0.6,0-0.8,0c-0.3,0-0.6,0.1-0.8,0.1c-0.3,0-0.6,0.1-0.9,0.1v-0.2
			l4,1.2c0.3,0.1,0.7,0.2,1,0.3c0.3,0.1,0.7,0.2,1,0.1l0.5-0.1l0.5-0.2l0.5-0.2l0.5-0.1h1c0.3,0,0.7,0,1,0s0.7-0.1,1-0.1
			s0.7,0,1,0.1c0.3,0,0.7,0,1,0.1s0.7,0.2,1,0.3c0.3,0.1,0.7,0.2,1,0.2C108.3,60.1,108.7,60.1,109,60.3L109,60.3z"/>
		
			<radialGradient id="SVGID_40_" cx="103.333" cy="99.1204" r="4.6736" gradientTransform="matrix(1 0 0 -1 0.105 162.3599)" gradientUnits="userSpaceOnUse">
			<stop  offset="0" style="stop-color:#EFD89C"/>
			<stop  offset="7.537065e-002" style="stop-color:#ECD495"/>
			<stop  offset="0.3334" style="stop-color:#E6C882"/>
			<stop  offset="0.5991" style="stop-color:#E1C177"/>
			<stop  offset="0.8823" style="stop-color:#E0BF73"/>
			<stop  offset="1" style="stop-color:#E0BF73"/>
		</radialGradient>
		<path fill="url(#SVGID_40_)" d="M109.1,61.6c-0.4,0-0.9,0-1.3,0.1c-0.4,0-0.9,0.1-1.3,0.1c-0.2,0-0.5,0.1-0.7,0.1
			c-0.2,0.1-0.5-0.1-0.7-0.1c-0.2-0.1-0.4-0.1-0.6-0.2l-0.6-0.1l-0.7-0.1c-0.2-0.1-0.5-0.1-0.6-0.3l-0.6-0.3
			c-0.2-0.1-0.4-0.2-0.6-0.3c-0.2-0.1-0.4-0.2-0.6-0.2s-0.4-0.1-0.6,0c-0.4,0-0.9,0-1.3,0v-0.2c0.8,0.3,1.5,0.5,2.3,0.9
			c0.2,0.1,0.4,0.2,0.5,0.4c0.2,0.2,0.3,0.3,0.4,0.5c0.3,0.3,0.6,0.5,1,0.7c0.2,0.1,0.3,0.2,0.5,0.4c0.2,0.1,0.3,0.3,0.4,0.5
			l0.6,1.1l0.3,0.5c0.1,0.2,0.2,0.4,0.3,0.5l0.7,1l0,0l-0.8-0.9c-0.1-0.2-0.2-0.3-0.3-0.5l-0.3-0.5l-0.6-1c-0.1-0.1-0.2-0.3-0.4-0.4
			c-0.1-0.1-0.3-0.3-0.5-0.4c-0.3-0.2-0.7-0.4-1-0.7c-0.1-0.2-0.3-0.3-0.4-0.4c-0.1-0.1-0.3-0.2-0.5-0.3c-0.7-0.4-1.4-0.7-2.2-1
			L98.4,60h0.5c0.4,0,0.9,0.1,1.3,0c0.2,0,0.5,0,0.7,0.1l0.6,0.3c0.2,0.1,0.4,0.2,0.6,0.3l0.6,0.3c0.2,0.1,0.4,0.1,0.6,0.2l0.7,0.1
			l0.7,0.1c0.2,0,0.4,0.1,0.6,0.2c0.2,0,0.4,0.1,0.6,0.1c0.2,0,0.4,0,0.6-0.1c0.4-0.1,0.9-0.1,1.3-0.1
			C108.3,61.5,108.7,61.5,109.1,61.6L109.1,61.6z"/>
		
			<radialGradient id="SVGID_41_" cx="106.6719" cy="101.7698" r="0.8894" gradientTransform="matrix(1 0 0 -1 0.105 162.3599)" gradientUnits="userSpaceOnUse">
			<stop  offset="0" style="stop-color:#EFD89C"/>
			<stop  offset="7.537065e-002" style="stop-color:#ECD495"/>
			<stop  offset="0.3334" style="stop-color:#E6C882"/>
			<stop  offset="0.5991" style="stop-color:#E1C177"/>
			<stop  offset="0.8823" style="stop-color:#E0BF73"/>
			<stop  offset="1" style="stop-color:#E0BF73"/>
		</radialGradient>
		<path fill="url(#SVGID_41_)" d="M107.3,61.6c0,0-0.1-0.1-0.2-0.3c-0.1-0.1-0.1-0.2-0.1-0.3c0-0.1-0.1-0.3-0.2-0.4
			c-0.2-0.2-0.4-0.4-0.5-0.6c-0.1-0.2-0.2-0.3-0.2-0.3l0,0c0,0,0.1,0,0.3,0.2c0.2,0.2,0.3,0.4,0.4,0.7c0,0.3,0.3,0.5,0.4,0.7
			C107.4,61.4,107.4,61.6,107.3,61.6L107.3,61.6z"/>
		
			<radialGradient id="SVGID_42_" cx="100.3945" cy="99.6604" r="3.439" gradientTransform="matrix(1 0 0 -1 0.105 162.3599)" gradientUnits="userSpaceOnUse">
			<stop  offset="0" style="stop-color:#EFD89C"/>
			<stop  offset="7.537065e-002" style="stop-color:#ECD495"/>
			<stop  offset="0.3334" style="stop-color:#E6C882"/>
			<stop  offset="0.5991" style="stop-color:#E1C177"/>
			<stop  offset="0.8823" style="stop-color:#E0BF73"/>
			<stop  offset="1" style="stop-color:#E0BF73"/>
		</radialGradient>
		<path fill="url(#SVGID_42_)" d="M104.5,65.3c0,0-0.5-0.3-1.3-0.7c-0.8-0.5-1.6-1.3-2.6-2c-0.5-0.3-1-0.7-1.5-0.9
			c-0.5-0.3-0.9-0.5-1.3-0.7c-0.8-0.4-1.3-0.7-1.3-0.7l0,0c0,0,0.6,0.2,1.4,0.6c0.4,0.2,0.9,0.5,1.4,0.7c0.5,0.3,0.9,0.7,1.4,1
			c0.5,0.4,0.9,0.7,1.4,1s0.9,0.6,1.3,0.9C104,64.9,104.5,65.3,104.5,65.3L104.5,65.3z"/>
		
			<radialGradient id="SVGID_43_" cx="106.25" cy="97.9016" r="1.7046" gradientTransform="matrix(1 0 0 -1 0.105 162.3599)" gradientUnits="userSpaceOnUse">
			<stop  offset="0" style="stop-color:#EFD89C"/>
			<stop  offset="7.537065e-002" style="stop-color:#ECD495"/>
			<stop  offset="0.3334" style="stop-color:#E6C882"/>
			<stop  offset="0.5991" style="stop-color:#E1C177"/>
			<stop  offset="0.8823" style="stop-color:#E0BF73"/>
			<stop  offset="1" style="stop-color:#E0BF73"/>
		</radialGradient>
		<path fill="url(#SVGID_43_)" d="M104.1,63.8c0,0,0.3-0.1,0.7-0.2c0.1,0,0.2,0,0.4,0c0.1,0,0.3,0.1,0.4,0.1
			c0.2,0.1,0.5,0.3,0.8,0.4c0.6,0.2,1.1,0.5,1.5,0.7c0.4,0.2,0.7,0.4,0.7,0.4l0,0c0,0-0.3,0-0.7-0.2c-0.4-0.2-1-0.4-1.5-0.7
			c-0.3-0.2-0.5-0.3-0.8-0.4c-0.1-0.1-0.3,0-0.4-0.1c-0.1,0-0.2,0-0.3,0C104.4,63.9,104.1,63.9,104.1,63.8L104.1,63.8z"/>
	</g>
	<g>
		
			<radialGradient id="SVGID_44_" cx="89.6699" cy="136.8792" r="4.8488" gradientTransform="matrix(1 0 0 -1.0494 0.105 191.7728)" gradientUnits="userSpaceOnUse">
			<stop  offset="0" style="stop-color:#EFD89C"/>
			<stop  offset="7.537065e-002" style="stop-color:#ECD495"/>
			<stop  offset="0.3334" style="stop-color:#E6C882"/>
			<stop  offset="0.5991" style="stop-color:#E1C177"/>
			<stop  offset="0.8823" style="stop-color:#E0BF73"/>
			<stop  offset="1" style="stop-color:#E0BF73"/>
		</radialGradient>
		<path fill="url(#SVGID_44_)" d="M89.3,41.9c0.1,0.3,0,0.6,0,0.8c0,0.3-0.1,0.5,0,0.8c0,0.3,0.1,0.5,0.1,0.8s-0.1,0.6-0.1,0.8
			c0,0.3-0.1,0.5-0.2,0.8c0,0.3-0.2,0.5-0.3,0.8c-0.2,0.5-0.3,1-0.5,1.5l-0.2,0.4c-0.1,0.1-0.2,0.2-0.3,0.3
			c-0.2,0.2-0.3,0.4-0.4,0.7c-0.1,0.2-0.1,0.5-0.1,0.8c0,0.3,0,0.5,0,0.8l0.1,3.2h-0.2c0.1-0.2,0.1-0.5,0.2-0.7
			c0.1-0.2,0.2-0.4,0.3-0.6c0.1-0.2,0.1-0.4,0.2-0.6s0.1-0.4,0.1-0.7c0-0.5,0.1-0.9,0.1-1.4l0.1-0.7l0.2-0.7
			c0.1-0.2,0.2-0.4,0.3-0.6c0.1-0.2,0.3-0.4,0.4-0.5c0.3-0.4,0.6-0.7,0.9-1c0.7-0.6,1.4-1.1,2.2-1.7l0,0c-0.7,0.6-1.4,1.1-2.1,1.8
			c-0.3,0.3-0.6,0.7-0.9,1c-0.1,0.2-0.3,0.3-0.4,0.5c-0.1,0.2-0.3,0.4-0.3,0.6l-0.2,0.6l-0.1,0.7c0,0.2,0,0.5-0.1,0.7L88,51.8
			c0,0.2,0,0.5-0.1,0.7s-0.1,0.5-0.2,0.7c-0.1,0.2-0.2,0.4-0.3,0.6s-0.2,0.4-0.2,0.6V55v-0.6v-3.3c0-0.5-0.1-1.1,0.1-1.6
			c0.1-0.1,0.1-0.2,0.2-0.4l0.2-0.3l0.2-0.3l0.2-0.3l0.2-0.8c0.1-0.3,0.1-0.5,0.2-0.8s0.2-0.5,0.3-0.8c0.1-0.3,0.1-0.5,0.2-0.8
			c0-0.3,0.1-0.5,0.1-0.8c0-0.3,0-0.5,0-0.8c0-0.3,0-0.5,0.1-0.8C89.2,42.4,89.3,42.1,89.3,41.9L89.3,41.9z"/>
		
			<radialGradient id="SVGID_45_" cx="85.8198" cy="138.7512" r="3.7614" gradientTransform="matrix(1 0 0 -1.0494 0.105 191.7728)" gradientUnits="userSpaceOnUse">
			<stop  offset="0" style="stop-color:#EFD89C"/>
			<stop  offset="7.537065e-002" style="stop-color:#ECD495"/>
			<stop  offset="0.3334" style="stop-color:#E6C882"/>
			<stop  offset="0.5991" style="stop-color:#E1C177"/>
			<stop  offset="0.8823" style="stop-color:#E0BF73"/>
			<stop  offset="1" style="stop-color:#E0BF73"/>
		</radialGradient>
		<path fill="url(#SVGID_45_)" d="M88.4,41.5c-0.1,0.3-0.1,0.7-0.2,1l-0.3,1L87.7,44c-0.1,0.2,0,0.3-0.1,0.5c0,0.2,0,0.4,0,0.5
			l-0.1,0.5L87.4,46c0,0.2,0,0.3,0,0.5l0.1,0.5c0,0.2,0.1,0.3,0.1,0.5s0,0.3,0.1,0.5c0,0.2,0,0.4-0.1,0.5c-0.1,0.3-0.2,0.7-0.2,1
			l-0.1,0.4v-0.4c-0.1-0.7-0.2-1.4-0.4-2.1c-0.1-0.2-0.1-0.3-0.2-0.5c-0.1-0.1-0.2-0.3-0.3-0.5c-0.1-0.3-0.2-0.7-0.4-1
			c-0.1-0.1-0.2-0.3-0.3-0.4l-0.4-0.4c-0.2-0.3-0.5-0.5-0.7-0.8c-0.2-0.3-0.4-0.6-0.6-0.9l-0.5-1l0,0l0.6,0.9
			c0.2,0.3,0.4,0.6,0.6,0.9c0.2,0.3,0.5,0.5,0.8,0.8l0.4,0.4c0.1,0.1,0.2,0.3,0.3,0.5c0.2,0.3,0.3,0.7,0.4,1
			c0.1,0.2,0.1,0.3,0.2,0.5c0.1,0.1,0.2,0.3,0.3,0.5c0.1,0.4,0.2,0.7,0.2,1.1c0,0.4,0.1,0.7,0.1,1.1h-0.1c0.1-0.3,0.2-0.7,0.3-1
			c0.1-0.2,0.1-0.3,0.1-0.5s0-0.3-0.1-0.5c-0.1-0.3-0.2-0.7-0.3-1c0-0.2-0.1-0.4-0.1-0.5l0.1-0.5c0-0.4,0.1-0.7,0.1-1
			c0-0.2,0-0.4,0.1-0.5l0.2-0.5l0.4-1C88.2,42.2,88.2,41.9,88.4,41.5L88.4,41.5z"/>
		
			<radialGradient id="SVGID_46_" cx="88.5049" cy="141.302" r="0.7001" gradientTransform="matrix(1 0 0 -1.0494 0.105 191.7728)" gradientUnits="userSpaceOnUse">
			<stop  offset="0" style="stop-color:#EFD89C"/>
			<stop  offset="7.537065e-002" style="stop-color:#ECD495"/>
			<stop  offset="0.3334" style="stop-color:#E6C882"/>
			<stop  offset="0.5991" style="stop-color:#E1C177"/>
			<stop  offset="0.8823" style="stop-color:#E0BF73"/>
			<stop  offset="1" style="stop-color:#E0BF73"/>
		</radialGradient>
		<path fill="url(#SVGID_46_)" d="M88,42.9c0,0,0.1,0,0.3,0.1c0.2,0.1,0.2,0.3,0.4,0.4c0.1,0.1,0.2,0.1,0.3,0.2
			c0.1,0.1,0.1,0.2,0.1,0.3c0.1,0.2,0.1,0.3,0.1,0.3l0,0c0,0-0.1-0.1-0.2-0.2c-0.1-0.1-0.1-0.1-0.2-0.2c-0.1-0.1-0.1-0.2-0.2-0.3
			c-0.1-0.1-0.1-0.2-0.2-0.2s-0.2-0.1-0.2-0.1C88,43,88,42.9,88,42.9L88,42.9z"/>
		
			<radialGradient id="SVGID_47_" cx="85.6831" cy="137.0784" r="2.6476" gradientTransform="matrix(1 0 0 -1.0494 0.105 191.7728)" gradientUnits="userSpaceOnUse">
			<stop  offset="0" style="stop-color:#EFD89C"/>
			<stop  offset="7.537065e-002" style="stop-color:#ECD495"/>
			<stop  offset="0.3334" style="stop-color:#E6C882"/>
			<stop  offset="0.5991" style="stop-color:#E1C177"/>
			<stop  offset="0.8823" style="stop-color:#E0BF73"/>
			<stop  offset="1" style="stop-color:#E0BF73"/>
		</radialGradient>
		<path fill="url(#SVGID_47_)" d="M84.7,44.4c0,0,0.2,0.4,0.4,1.1c0.1,0.3,0.3,0.7,0.4,1.1c0.1,0.4,0.3,0.8,0.5,1.3
			c0.2,0.4,0.4,0.8,0.5,1.3c0.1,0.4,0.2,0.8,0.3,1.2c0.1,0.7,0.1,1.2,0.1,1.2l0,0c0,0-0.1-0.4-0.3-1.1c-0.1-0.3-0.2-0.7-0.3-1.1
			c-0.1-0.4-0.3-0.9-0.4-1.3c-0.2-0.9-0.7-1.7-0.9-2.4C84.8,44.9,84.7,44.4,84.7,44.4L84.7,44.4z"/>
		
			<radialGradient id="SVGID_48_" cx="85.6763" cy="141.6204" r="1.3273" gradientTransform="matrix(1 0 0 -1.0494 0.105 191.7728)" gradientUnits="userSpaceOnUse">
			<stop  offset="0" style="stop-color:#EFD89C"/>
			<stop  offset="7.537065e-002" style="stop-color:#ECD495"/>
			<stop  offset="0.3334" style="stop-color:#E6C882"/>
			<stop  offset="0.5991" style="stop-color:#E1C177"/>
			<stop  offset="0.8823" style="stop-color:#E0BF73"/>
			<stop  offset="1" style="stop-color:#E0BF73"/>
		</radialGradient>
		<path fill="url(#SVGID_48_)" d="M85.7,45c0,0,0-0.2,0.1-0.6c0-0.1,0-0.2,0-0.3c0-0.1,0.1-0.2,0-0.3c0-0.2,0-0.4-0.1-0.7
			c-0.2-0.4-0.2-0.9-0.3-1.3c0-0.4,0-0.6,0-0.6l0,0c0,0,0.1,0.2,0.2,0.6c0.1,0.3,0.2,0.8,0.2,1.3c0,0.2,0,0.5,0.1,0.7s0,0.5,0,0.6
			C85.9,44.8,85.7,45,85.7,45L85.7,45z"/>
	</g>
	<g>
		
			<radialGradient id="SVGID_49_" cx="75.9102" cy="319.5588" r="5.7262" gradientTransform="matrix(1 0 0 -1.8073 0.105 643.1769)" gradientUnits="userSpaceOnUse">
			<stop  offset="0" style="stop-color:#EFD89C"/>
			<stop  offset="7.537065e-002" style="stop-color:#ECD495"/>
			<stop  offset="0.3334" style="stop-color:#E6C882"/>
			<stop  offset="0.5991" style="stop-color:#E1C177"/>
			<stop  offset="0.8823" style="stop-color:#E0BF73"/>
			<stop  offset="1" style="stop-color:#E0BF73"/>
		</radialGradient>
		<path fill="url(#SVGID_49_)" d="M69.4,69.4c0.3-0.1,0.6-0.3,0.8-0.5c0.3-0.2,0.5-0.4,0.8-0.5l0.9-0.5c0.3-0.1,0.5-0.4,0.8-0.5
			c0.5-0.4,1-0.8,1.6-1.2c0.5-0.4,1-0.8,1.6-1.2c0.5-0.4,0.9-0.9,1.4-1.4c0.1-0.1,0.3-0.2,0.4-0.3c0.1-0.1,0.3-0.2,0.4-0.2l0.9-0.4
			l3.5-1.8l0.1,0.2c-0.4,0.3-0.8,0.7-1.2,1.1c-0.2,0.2-0.4,0.4-0.7,0.5c-0.2,0.2-0.5,0.3-0.7,0.5c-0.5,0.3-1,0.5-1.4,0.8l-0.7,0.4
			L77.2,65c-0.2,0.1-0.4,0.4-0.6,0.6L76,66.2c-0.4,0.4-0.7,0.8-1.1,1.3l-0.5,0.7c-0.2,0.2-0.3,0.5-0.5,0.7L73,70.3l0,0l0.8-1.4
			c0.1-0.2,0.3-0.5,0.4-0.7l0.5-0.7c0.3-0.5,0.6-0.9,1-1.3l0.5-0.6c0.2-0.2,0.3-0.4,0.6-0.6l0.7-0.5l0.7-0.5c0.5-0.3,1-0.6,1.4-0.8
			c0.2-0.1,0.5-0.3,0.7-0.4c0.2-0.2,0.4-0.3,0.7-0.5c0.4-0.3,0.8-0.7,1.3-1.1l0.1,0.2l-3.5,1.7L78,63.5c-0.1,0.1-0.3,0.2-0.4,0.2
			c-0.1,0.1-0.3,0.2-0.4,0.3c-0.5,0.4-0.8,1-1.4,1.4c-0.5,0.4-1,0.8-1.6,1.2c-0.5,0.4-1,0.8-1.6,1.1c-0.3,0.2-0.5,0.4-0.8,0.5
			l-0.9,0.4c-0.3,0.1-0.6,0.3-0.9,0.5C70,69.1,69.7,69.3,69.4,69.4L69.4,69.4z"/>
		
			<radialGradient id="SVGID_50_" cx="73.1714" cy="319.2395" r="3.5912" gradientTransform="matrix(1 0 0 -1.8073 0.105 643.1769)" gradientUnits="userSpaceOnUse">
			<stop  offset="0" style="stop-color:#EFD89C"/>
			<stop  offset="7.537065e-002" style="stop-color:#ECD495"/>
			<stop  offset="0.3334" style="stop-color:#E6C882"/>
			<stop  offset="0.5991" style="stop-color:#E1C177"/>
			<stop  offset="0.8823" style="stop-color:#E0BF73"/>
			<stop  offset="1" style="stop-color:#E0BF73"/>
		</radialGradient>
		<path fill="url(#SVGID_50_)" d="M69,68.8c0.3-0.3,0.7-0.5,1-0.8l0.9-0.8l0.5-0.4c0.2-0.1,0.3-0.3,0.5-0.4c0.2-0.1,0.4-0.2,0.6-0.3
			l0.5-0.3l0.5-0.3c0.2-0.1,0.4-0.2,0.6-0.3l0.6-0.2c0.2-0.1,0.4-0.1,0.6-0.2c0.4-0.1,0.8-0.3,1.1-0.6c0.3-0.3,0.7-0.5,1-0.7
			l0.1,0.2c-0.6,0.3-1.3,0.6-1.9,0.8c-0.2,0.1-0.3,0.1-0.5,0.1c-0.2,0-0.4,0-0.5,0c-0.3,0-0.6,0.1-1,0.2c-0.2,0-0.4,0.1-0.5,0
			c-0.2,0-0.4-0.1-0.5-0.1c-0.3-0.1-0.6-0.2-1-0.3c-0.7-0.2-1.4-0.1-2-0.2l0,0c0.7,0,1.4-0.1,2.1,0c0.4,0.1,0.7,0.2,1,0.3
			c0.2,0,0.3,0.1,0.5,0.1c0.2,0,0.3,0,0.5,0c0.3-0.1,0.6-0.2,1-0.2c0.2,0,0.4,0,0.5,0c0.2,0,0.3-0.1,0.5-0.1
			c0.7-0.2,1.3-0.4,1.9-0.7l0.8-0.3l-0.7,0.5c-0.3,0.2-0.7,0.4-1,0.7c-0.3,0.3-0.7,0.5-1.1,0.6c-0.4,0.1-0.8,0.2-1.2,0.4
			c-0.2,0.1-0.4,0.2-0.5,0.3L73.2,66l-0.5,0.3c-0.2,0.1-0.4,0.2-0.6,0.3c-0.2,0.1-0.3,0.2-0.5,0.3l-0.5,0.4l-1,0.8
			C69.8,68.4,69.4,68.6,69,68.8L69,68.8z"/>
		
			<radialGradient id="SVGID_51_" cx="71.0039" cy="318.2698" r="0.5574" gradientTransform="matrix(1 0 0 -1.8073 0.105 643.1769)" gradientUnits="userSpaceOnUse">
			<stop  offset="0" style="stop-color:#EFD89C"/>
			<stop  offset="7.537065e-002" style="stop-color:#ECD495"/>
			<stop  offset="0.3334" style="stop-color:#E6C882"/>
			<stop  offset="0.5991" style="stop-color:#E1C177"/>
			<stop  offset="0.8823" style="stop-color:#E0BF73"/>
			<stop  offset="1" style="stop-color:#E0BF73"/>
		</radialGradient>
		<path fill="url(#SVGID_51_)" d="M70.5,67.7c0,0,0.1,0,0.2,0c0.1,0,0.1,0.1,0.2,0.1c0,0.2,0.1,0.2,0.2,0.2s0.2,0,0.3,0s0.1,0,0.2,0
			s0.2,0.1,0.2,0.1l0,0c0,0-0.1,0.1-0.2,0.1s-0.2,0-0.3,0c-0.1,0-0.2-0.1-0.3-0.1c0,0-0.1-0.1-0.2-0.1c-0.1,0-0.2,0-0.2-0.1
			C70.5,67.9,70.5,67.8,70.5,67.7L70.5,67.7z"/>
		
			<radialGradient id="SVGID_52_" cx="75.5923" cy="320.9104" r="2.7568" gradientTransform="matrix(1 0 0 -1.8073 0.105 643.1769)" gradientUnits="userSpaceOnUse">
			<stop  offset="0" style="stop-color:#EFD89C"/>
			<stop  offset="7.537065e-002" style="stop-color:#ECD495"/>
			<stop  offset="0.3334" style="stop-color:#E6C882"/>
			<stop  offset="0.5991" style="stop-color:#E1C177"/>
			<stop  offset="0.8823" style="stop-color:#E0BF73"/>
			<stop  offset="1" style="stop-color:#E0BF73"/>
		</radialGradient>
		<path fill="url(#SVGID_52_)" d="M72,64.1c0,0,0.5-0.2,1.2-0.4c0.7-0.2,1.7-0.2,2.6-0.5c0.5-0.1,0.9-0.2,1.4-0.4
			c0.4-0.1,0.8-0.2,1.2-0.3c0.7-0.2,1.2-0.3,1.2-0.3l0,0c0,0-0.4,0.2-1.1,0.5c-0.3,0.1-0.7,0.3-1.2,0.4c-0.4,0.1-0.9,0.2-1.4,0.3
			c-0.5,0.1-1,0.1-1.4,0.3c-0.4,0.1-0.8,0.2-1.2,0.3C72.4,64.1,72,64.1,72,64.1L72,64.1z"/>
		
			<radialGradient id="SVGID_53_" cx="70.5522" cy="319.5793" r="1.5779" gradientTransform="matrix(1 0 0 -1.8073 0.105 643.1769)" gradientUnits="userSpaceOnUse">
			<stop  offset="0" style="stop-color:#EFD89C"/>
			<stop  offset="7.537065e-002" style="stop-color:#ECD495"/>
			<stop  offset="0.3334" style="stop-color:#E6C882"/>
			<stop  offset="0.5991" style="stop-color:#E1C177"/>
			<stop  offset="0.8823" style="stop-color:#E0BF73"/>
			<stop  offset="1" style="stop-color:#E0BF73"/>
		</radialGradient>
		<path fill="url(#SVGID_53_)" d="M72.6,64.7c0,0-0.1,0.2-0.4,0.5c-0.1,0.1-0.4,0.3-0.6,0.3c-0.3,0.1-0.5,0.2-0.7,0.3
			c-0.5,0.3-1,0.4-1.4,0.6c-0.4,0.1-0.7,0.1-0.7,0.1l0,0c0,0,0.2-0.2,0.6-0.3c0.4-0.2,0.9-0.4,1.4-0.5c0.3-0.1,0.5-0.2,0.7-0.3
			c0.1-0.1,0.2-0.2,0.3-0.2c0.1-0.1,0.2-0.1,0.3-0.2C72.3,64.8,72.6,64.7,72.6,64.7L72.6,64.7z"/>
	</g>
	<g>
		
			<radialGradient id="SVGID_54_" cx="91.6563" cy="317.0833" r="5.7637" gradientTransform="matrix(1 0 0 -1.8073 0.105 643.1769)" gradientUnits="userSpaceOnUse">
			<stop  offset="0" style="stop-color:#EFD89C"/>
			<stop  offset="7.537065e-002" style="stop-color:#ECD495"/>
			<stop  offset="0.3334" style="stop-color:#E6C882"/>
			<stop  offset="0.5991" style="stop-color:#E1C177"/>
			<stop  offset="0.8823" style="stop-color:#E0BF73"/>
			<stop  offset="1" style="stop-color:#E0BF73"/>
		</radialGradient>
		<path fill="url(#SVGID_54_)" d="M92.8,77.6c0-0.3-0.1-0.6-0.2-0.9c-0.1-0.3-0.2-0.6-0.2-1l-0.2-1c0-0.3-0.2-0.6-0.3-0.9
			c-0.2-0.6-0.4-1.2-0.6-1.8c-0.2-0.6-0.4-1.2-0.6-1.9c-0.2-0.6-0.6-1.1-0.9-1.7c-0.1-0.1-0.1-0.3-0.2-0.5c0-0.2-0.1-0.3-0.1-0.5
			l-0.1-1l-0.6-3.9H89c0.2,0.5,0.4,1,0.7,1.5c0.1,0.3,0.2,0.5,0.3,0.8s0.2,0.5,0.2,0.8c0.1,0.5,0.2,1.1,0.4,1.6l0.2,0.8l0.3,0.8
			c0.1,0.2,0.3,0.5,0.4,0.7l0.4,0.7c0.3,0.5,0.6,0.9,0.9,1.4l0.5,0.7c0.2,0.2,0.3,0.4,0.5,0.6l1.1,1.3l0,0L93.8,73
			c-0.2-0.2-0.4-0.4-0.5-0.6l-0.5-0.7c-0.4-0.4-0.7-0.9-1-1.4l-0.4-0.7c-0.1-0.3-0.3-0.5-0.4-0.7l-0.3-0.8l-0.2-0.8
			c-0.1-0.5-0.2-1.1-0.4-1.6c-0.1-0.3-0.1-0.5-0.2-0.8c-0.1-0.3-0.2-0.5-0.3-0.8c-0.2-0.5-0.5-1-0.6-1.6h0.2l0.5,3.9l0.1,1
			c0,0.2,0.1,0.3,0.1,0.5c0,0.2,0.1,0.3,0.2,0.5c0.3,0.6,0.7,1.1,0.9,1.7c0.2,0.6,0.4,1.2,0.7,1.8c0.2,0.6,0.4,1.2,0.6,1.9
			c0.1,0.3,0.2,0.6,0.2,1l0.1,1c0,0.3,0.1,0.6,0.2,1C92.7,77,92.8,77.3,92.8,77.6L92.8,77.6z"/>
		
			<radialGradient id="SVGID_55_" cx="89.9204" cy="315.4807" r="3.7701" gradientTransform="matrix(1 0 0 -1.8073 0.105 643.1769)" gradientUnits="userSpaceOnUse">
			<stop  offset="0" style="stop-color:#EFD89C"/>
			<stop  offset="7.537065e-002" style="stop-color:#ECD495"/>
			<stop  offset="0.3334" style="stop-color:#E6C882"/>
			<stop  offset="0.5991" style="stop-color:#E1C177"/>
			<stop  offset="0.8823" style="stop-color:#E0BF73"/>
			<stop  offset="1" style="stop-color:#E0BF73"/>
		</radialGradient>
		<path fill="url(#SVGID_55_)" d="M92.1,77.8c-0.2-0.4-0.3-0.8-0.5-1.2l-0.5-1.1l-0.2-0.6c-0.1-0.2-0.2-0.4-0.2-0.6
			s-0.1-0.4-0.1-0.6l-0.1-0.6l-0.1-0.6c-0.1-0.2-0.1-0.4-0.1-0.6v-0.6c0-0.2,0-0.4,0-0.6c0-0.4-0.1-0.8-0.2-1.2
			c-0.2-0.4-0.3-0.8-0.4-1.2h0.2c0.1,0.7,0.2,1.4,0.2,2.1c0,0.2,0,0.4,0,0.5c0,0.2-0.1,0.3-0.2,0.5c-0.1,0.3-0.1,0.7-0.1,1
			c0,0.2-0.1,0.4-0.1,0.5c-0.1,0.2-0.2,0.3-0.3,0.5c-0.2,0.3-0.4,0.5-0.6,0.8c-0.3,0.6-0.5,1.3-0.8,1.9l0,0c0.2-0.7,0.3-1.4,0.6-2
			c0.2-0.3,0.4-0.6,0.6-0.9c0.1-0.1,0.2-0.3,0.2-0.4c0.1-0.1,0.1-0.3,0.1-0.5c0-0.3,0-0.7,0.1-1.1c0.1-0.2,0.1-0.3,0.1-0.5
			c0-0.2,0-0.3,0-0.5c0-0.7,0-1.4-0.1-2.1l-0.1-0.9l0.2,0.9c0.1,0.4,0.2,0.8,0.4,1.2c0.1,0.4,0.2,0.8,0.2,1.2c0,0.4,0,0.8,0,1.3
			c0,0.2,0,0.4,0.1,0.6l0.2,0.6l0.2,0.6c0,0.2,0.1,0.4,0.1,0.6c0,0.2,0.1,0.4,0.2,0.6l0.2,0.6l0.4,1.2C91.9,77,92,77.4,92.1,77.8
			L92.1,77.8z"/>
		
			<radialGradient id="SVGID_56_" cx="91.8496" cy="314.0403" r="0.5756" gradientTransform="matrix(1 0 0 -1.8073 0.105 643.1769)" gradientUnits="userSpaceOnUse">
			<stop  offset="0" style="stop-color:#EFD89C"/>
			<stop  offset="7.537065e-002" style="stop-color:#ECD495"/>
			<stop  offset="0.3334" style="stop-color:#E6C882"/>
			<stop  offset="0.5991" style="stop-color:#E1C177"/>
			<stop  offset="0.8823" style="stop-color:#E0BF73"/>
			<stop  offset="1" style="stop-color:#E0BF73"/>
		</radialGradient>
		<path fill="url(#SVGID_56_)" d="M91.5,76.2c0,0,0-0.1,0.1-0.2c0-0.1,0.1-0.1,0.2-0.1c0.1,0,0.1-0.1,0.1-0.2c0-0.1,0.1-0.2,0.1-0.2
			c0-0.1,0-0.1,0.1-0.2s0.2-0.2,0.2-0.2l0,0c0,0,0,0.1,0,0.2s0,0.2-0.1,0.2c0,0.1-0.1,0.1-0.2,0.2c-0.1,0.1-0.1,0.1-0.2,0.2
			c0,0.1-0.1,0.2-0.1,0.2C91.7,76.2,91.6,76.2,91.5,76.2L91.5,76.2z"/>
		
			<radialGradient id="SVGID_57_" cx="88.6855" cy="317.2561" r="2.7356" gradientTransform="matrix(1 0 0 -1.8073 0.105 643.1769)" gradientUnits="userSpaceOnUse">
			<stop  offset="0" style="stop-color:#EFD89C"/>
			<stop  offset="7.537065e-002" style="stop-color:#ECD495"/>
			<stop  offset="0.3334" style="stop-color:#E6C882"/>
			<stop  offset="0.5991" style="stop-color:#E1C177"/>
			<stop  offset="0.8823" style="stop-color:#E0BF73"/>
			<stop  offset="1" style="stop-color:#E0BF73"/>
		</radialGradient>
		<path fill="url(#SVGID_57_)" d="M88.5,73.6c0,0,0-0.5,0-1.2c0-0.7,0.3-1.7,0.3-2.6c0-0.5,0.1-1,0-1.4c0-0.4,0-0.9,0-1.2
			c0-0.7,0.1-1.2,0.1-1.2l0,0c0,0,0.1,0.5,0.1,1.2c0,0.4,0,0.8,0,1.2c0,0.5-0.1,0.9-0.2,1.4c-0.1,0.5-0.2,0.9-0.2,1.4
			s-0.1,0.9-0.1,1.2C88.7,73.2,88.5,73.6,88.5,73.6L88.5,73.6z"/>
		
			<radialGradient id="SVGID_58_" cx="89.4336" cy="314.2043" r="1.5374" gradientTransform="matrix(1 0 0 -1.8073 0.105 643.1769)" gradientUnits="userSpaceOnUse">
			<stop  offset="0" style="stop-color:#EFD89C"/>
			<stop  offset="7.537065e-002" style="stop-color:#ECD495"/>
			<stop  offset="0.3334" style="stop-color:#E6C882"/>
			<stop  offset="0.5991" style="stop-color:#E1C177"/>
			<stop  offset="0.8823" style="stop-color:#E0BF73"/>
			<stop  offset="1" style="stop-color:#E0BF73"/>
		</radialGradient>
		<path fill="url(#SVGID_58_)" d="M89.2,73.2c0,0,0.2,0.2,0.4,0.6c0.1,0.2,0.1,0.4,0.1,0.7s0,0.5,0.1,0.8c0.1,0.5,0.1,1.1,0.1,1.5
			s-0.1,0.7-0.1,0.7l0,0c0,0-0.1-0.3-0.1-0.7c-0.1-0.4-0.1-0.9,0-1.5c0-0.3,0-0.5,0-0.8c0-0.1-0.1-0.2-0.1-0.3c0-0.1,0-0.2-0.1-0.3
			C89.3,73.5,89.2,73.2,89.2,73.2L89.2,73.2z"/>
	</g>
	<g>
		
			<radialGradient id="SVGID_59_" cx="97.6455" cy="270.0881" r="5.9705" gradientTransform="matrix(1 0 0 -1.5359 0.105 481.5219)" gradientUnits="userSpaceOnUse">
			<stop  offset="0" style="stop-color:#EFD89C"/>
			<stop  offset="7.537065e-002" style="stop-color:#ECD495"/>
			<stop  offset="0.3334" style="stop-color:#E6C882"/>
			<stop  offset="0.5991" style="stop-color:#E1C177"/>
			<stop  offset="0.8823" style="stop-color:#E0BF73"/>
			<stop  offset="1" style="stop-color:#E0BF73"/>
		</radialGradient>
		<path fill="url(#SVGID_59_)" d="M104.6,71.4c-0.2-0.3-0.5-0.4-0.8-0.6s-0.6-0.4-0.9-0.6c-0.3-0.2-0.5-0.4-0.8-0.7
			c-0.3-0.2-0.6-0.4-0.9-0.6l-0.9-0.5c-0.3-0.2-0.6-0.3-0.9-0.5c-0.6-0.3-1.2-0.7-1.8-1c-0.3-0.1-0.6-0.3-1-0.4
			c-0.3-0.1-0.7-0.2-1-0.3c-0.2-0.1-0.3-0.2-0.5-0.3c-0.2-0.1-0.3-0.2-0.4-0.3L94,64.8l-3.2-2.7l-0.6-0.5l0.7,0.4
			c0.2,0.1,0.5,0.3,0.8,0.4l0.8,0.4c0.3,0.1,0.5,0.3,0.8,0.4c0.3,0.1,0.5,0.3,0.8,0.5c0.5,0.4,0.9,0.7,1.4,1.1l0.7,0.5l0.8,0.4
			c0.2,0.1,0.6,0.2,0.8,0.3c0.3,0.1,0.6,0.2,0.9,0.2c0.6,0.2,1.1,0.3,1.7,0.4c1.2,0.2,2.4,0.2,3.5,0.4l0,0c-1.2-0.1-2.4-0.1-3.6-0.2
			c-0.6-0.1-1.2-0.2-1.8-0.3c-0.3-0.1-0.6-0.1-0.9-0.2c-0.3-0.1-0.6-0.1-0.8-0.3L96,65.6l-0.7-0.5c-0.5-0.3-1-0.7-1.4-1.1
			c-0.2-0.2-0.5-0.4-0.7-0.5c-0.2-0.2-0.5-0.3-0.8-0.4l-0.8-0.4c-0.3-0.1-0.5-0.3-0.8-0.4l0.1-0.1L94,65c0.3,0.2,0.5,0.5,0.8,0.7
			c0.1,0.1,0.3,0.2,0.4,0.3c0.1,0.1,0.3,0.2,0.5,0.2c0.3,0.2,0.6,0.2,1,0.3c0.3,0.1,0.7,0.2,1,0.3c0.6,0.3,1.2,0.7,1.8,1
			c0.3,0.2,0.6,0.3,0.9,0.5l0.9,0.6c0.3,0.2,0.6,0.4,0.9,0.6s0.5,0.5,0.8,0.7c0.3,0.2,0.5,0.4,0.8,0.6
			C104.1,70.9,104.4,71.1,104.6,71.4L104.6,71.4z"/>
		
			<radialGradient id="SVGID_60_" cx="99.7266" cy="267.8518" r="4.3202" gradientTransform="matrix(1 0 0 -1.5359 0.105 481.5219)" gradientUnits="userSpaceOnUse">
			<stop  offset="0" style="stop-color:#EFD89C"/>
			<stop  offset="7.537065e-002" style="stop-color:#ECD495"/>
			<stop  offset="0.3334" style="stop-color:#E6C882"/>
			<stop  offset="0.5991" style="stop-color:#E1C177"/>
			<stop  offset="0.8823" style="stop-color:#E0BF73"/>
			<stop  offset="1" style="stop-color:#E0BF73"/>
		</radialGradient>
		<path fill="url(#SVGID_60_)" d="M104.2,72.1c-0.4-0.2-0.8-0.4-1.2-0.6l-1.2-0.6l-0.6-0.3c-0.2-0.1-0.4-0.2-0.6-0.4
			c-0.2-0.1-0.3-0.3-0.5-0.4l-0.5-0.4L99,69.1c-0.2-0.1-0.3-0.3-0.5-0.5l-0.4-0.5c-0.1-0.2-0.3-0.4-0.4-0.5
			c-0.2-0.2-0.3-0.3-0.5-0.5c-0.2-0.1-0.4-0.3-0.6-0.3c-0.4-0.2-0.8-0.4-1.2-0.7l0.1-0.1c0.6,0.5,1.2,1.1,1.7,1.7
			c0.1,0.2,0.3,0.3,0.3,0.5c0,0.1,0.1,0.2,0.1,0.3c0,0.1,0.1,0.2,0.1,0.3c0.2,0.3,0.4,0.6,0.6,1c0.1,0.2,0.2,0.4,0.2,0.6
			c0.1,0.2,0.1,0.4,0.1,0.6c0,0.4,0,0.8,0.1,1.2c0.1,0.8,0.4,1.5,0.7,2.2l0,0L99,73.2c-0.1-0.4-0.3-0.7-0.4-1.1
			c-0.1-0.4-0.1-0.8-0.2-1.2c0-0.2,0-0.4-0.1-0.6c0-0.2-0.1-0.3-0.2-0.5c-0.1-0.2-0.2-0.3-0.3-0.5c-0.1-0.2-0.2-0.3-0.3-0.5
			c-0.1-0.1-0.1-0.2-0.1-0.3c0-0.1-0.1-0.2-0.1-0.3c0-0.2-0.2-0.3-0.3-0.5c-0.5-0.6-1-1.2-1.6-1.7l-0.5-0.5l0.6,0.4
			c0.4,0.2,0.7,0.5,1.1,0.7c0.2,0.1,0.4,0.2,0.6,0.4c0.2,0.1,0.3,0.3,0.5,0.5s0.3,0.3,0.4,0.5l0.4,0.5c0.2,0.1,0.3,0.3,0.5,0.4
			l0.6,0.4l0.6,0.4c0.2,0.1,0.3,0.3,0.5,0.4c0.2,0.1,0.3,0.3,0.5,0.4l0.6,0.3l1.2,0.6C103.5,71.6,103.8,71.9,104.2,72.1L104.2,72.1z
			"/>
		
			<radialGradient id="SVGID_61_" cx="102.3936" cy="267.7073" r="0.6497" gradientTransform="matrix(1 0 0 -1.5359 0.105 481.5219)" gradientUnits="userSpaceOnUse">
			<stop  offset="0" style="stop-color:#EFD89C"/>
			<stop  offset="7.537065e-002" style="stop-color:#ECD495"/>
			<stop  offset="0.3334" style="stop-color:#E6C882"/>
			<stop  offset="0.5991" style="stop-color:#E1C177"/>
			<stop  offset="0.8823" style="stop-color:#E0BF73"/>
			<stop  offset="1" style="stop-color:#E0BF73"/>
		</radialGradient>
		<path fill="url(#SVGID_61_)" d="M102.5,71.2c0,0-0.1-0.1-0.1-0.3c0-0.1,0-0.2,0.1-0.3c0-0.1,0-0.2,0-0.3c-0.1-0.2-0.1-0.4-0.2-0.5
			c0-0.1,0-0.3,0-0.3l0,0c0,0,0.1,0.1,0.2,0.2c0.1,0.2,0.1,0.4,0.1,0.6c0,0.1,0,0.2,0,0.3c0,0.1,0,0.2,0,0.3
			C102.7,71.1,102.6,71.2,102.5,71.2L102.5,71.2z"/>
		
			<radialGradient id="SVGID_62_" cx="95.6992" cy="269.0784" r="3.0949" gradientTransform="matrix(1 0 0 -1.5359 0.105 481.5219)" gradientUnits="userSpaceOnUse">
			<stop  offset="0" style="stop-color:#EFD89C"/>
			<stop  offset="7.537065e-002" style="stop-color:#ECD495"/>
			<stop  offset="0.3334" style="stop-color:#E6C882"/>
			<stop  offset="0.5991" style="stop-color:#E1C177"/>
			<stop  offset="0.8823" style="stop-color:#E0BF73"/>
			<stop  offset="1" style="stop-color:#E0BF73"/>
		</radialGradient>
		<path fill="url(#SVGID_62_)" d="M98.3,71.7c0,0-0.4-0.4-0.8-1C97,70.1,96.6,69,96,68.2c-0.3-0.4-0.6-0.9-0.9-1.3
			c-0.3-0.4-0.6-0.8-0.8-1.1c-0.5-0.6-0.8-1.1-0.8-1.1l0,0c0,0,0.4,0.3,1,0.9c0.3,0.3,0.6,0.7,0.9,1.1c0.3,0.4,0.6,0.9,0.8,1.3
			c0.3,0.5,0.5,0.9,0.8,1.3s0.5,0.8,0.8,1.1C98,71.2,98.3,71.7,98.3,71.7L98.3,71.7z"/>
		
			<radialGradient id="SVGID_63_" cx="100.1943" cy="266.4592" r="1.7103" gradientTransform="matrix(1 0 0 -1.5359 0.105 481.5219)" gradientUnits="userSpaceOnUse">
			<stop  offset="0" style="stop-color:#EFD89C"/>
			<stop  offset="7.537065e-002" style="stop-color:#ECD495"/>
			<stop  offset="0.3334" style="stop-color:#E6C882"/>
			<stop  offset="0.5991" style="stop-color:#E1C177"/>
			<stop  offset="0.8823" style="stop-color:#E0BF73"/>
			<stop  offset="1" style="stop-color:#E0BF73"/>
		</radialGradient>
		<path fill="url(#SVGID_63_)" d="M98.6,70.7c0,0,0.3,0,0.7,0.2c0.1,0,0.2,0.1,0.3,0.2c0.1,0.1,0.2,0.2,0.3,0.3
			c0.2,0.2,0.4,0.4,0.6,0.6c0.4,0.4,0.8,0.8,1.1,1.2c0.3,0.3,0.4,0.6,0.4,0.6l0,0c0,0-0.3-0.2-0.6-0.5c-0.3-0.3-0.7-0.7-1-1.2
			c-0.2-0.2-0.4-0.4-0.6-0.6c-0.1-0.1-0.2-0.1-0.3-0.2s-0.2-0.1-0.3-0.2C98.8,70.9,98.6,70.8,98.6,70.7L98.6,70.7z"/>
	</g>
	<g>
		
			<radialGradient id="SVGID_64_" cx="76.7466" cy="326.9602" r="5.7655" gradientTransform="matrix(1 0 0 -1.8073 0.105 643.1769)" gradientUnits="userSpaceOnUse">
			<stop  offset="0" style="stop-color:#EFD89C"/>
			<stop  offset="7.537065e-002" style="stop-color:#ECD495"/>
			<stop  offset="0.3334" style="stop-color:#E6C882"/>
			<stop  offset="0.5991" style="stop-color:#E1C177"/>
			<stop  offset="0.8823" style="stop-color:#E0BF73"/>
			<stop  offset="1" style="stop-color:#E0BF73"/>
		</radialGradient>
		<path fill="url(#SVGID_64_)" d="M69.8,49.6c0.3,0,0.6,0.2,0.9,0.3c0.3,0.1,0.6,0.3,0.9,0.3l0.9,0.3c0.3,0.1,0.6,0.3,0.9,0.4
			c0.6,0.3,1.2,0.6,1.7,0.9c0.6,0.3,1.1,0.7,1.7,1c0.6,0.4,1,0.9,1.5,1.2c0.1,0.1,0.3,0.2,0.4,0.2c0.1,0.1,0.3,0.1,0.4,0.2l0.9,0.3
			l3.7,1.2l-0.1,0.2c-0.5-0.3-1-0.6-1.4-0.9c-0.2-0.2-0.5-0.3-0.7-0.4s-0.5-0.3-0.7-0.4c-0.5-0.2-1-0.4-1.5-0.6l-0.8-0.4L77.8,53
			c-0.3-0.1-0.4-0.4-0.7-0.5l-0.6-0.6c-0.4-0.4-0.8-0.8-1.2-1.2l-0.6-0.6c-0.2-0.2-0.4-0.4-0.5-0.6l-1-1.3l0,0l1.1,1.3
			c0.2,0.2,0.3,0.4,0.5,0.6l0.6,0.6c0.4,0.4,0.8,0.8,1.2,1.1l0.6,0.5c0.2,0.2,0.4,0.4,0.6,0.5l0.7,0.4l0.7,0.4
			c0.5,0.2,1,0.4,1.5,0.7c0.3,0.1,0.5,0.2,0.8,0.4c0.3,0.1,0.5,0.3,0.7,0.4c0.5,0.3,0.9,0.7,1.4,0.9l-0.1,0.2l-3.7-1.3l-0.9-0.3
			c-0.2,0-0.3-0.1-0.5-0.2c-0.2-0.1-0.3-0.1-0.4-0.2c-0.6-0.4-1-0.9-1.6-1.2s-1.1-0.6-1.7-0.9c-0.6-0.3-1.1-0.7-1.7-1
			c-0.3-0.1-0.6-0.3-0.9-0.4l-0.9-0.3c-0.3-0.1-0.6-0.2-0.9-0.4C70.4,49.8,70.1,49.7,69.8,49.6L69.8,49.6z"/>
		
			<radialGradient id="SVGID_65_" cx="73.9106" cy="326.8508" r="3.6379" gradientTransform="matrix(1 0 0 -1.8073 0.105 643.1769)" gradientUnits="userSpaceOnUse">
			<stop  offset="0" style="stop-color:#EFD89C"/>
			<stop  offset="7.537065e-002" style="stop-color:#ECD495"/>
			<stop  offset="0.3334" style="stop-color:#E6C882"/>
			<stop  offset="0.5991" style="stop-color:#E1C177"/>
			<stop  offset="0.8823" style="stop-color:#E0BF73"/>
			<stop  offset="1" style="stop-color:#E0BF73"/>
		</radialGradient>
		<path fill="url(#SVGID_65_)" d="M69.5,50.2c0.4,0.2,0.8,0.3,1.1,0.6l1.1,0.6l0.5,0.3c0.2,0.1,0.4,0.2,0.5,0.3
			c0.2,0.1,0.4,0.1,0.6,0.2l0.6,0.3l0.6,0.3c0.2,0.1,0.4,0.1,0.6,0.2c0.4,0.1,0.8,0.1,1.2,0.2c0.4,0.1,0.8,0.2,1.2,0.4
			s0.7,0.4,1.1,0.6l0.8,0.4l-0.9-0.2c-0.7-0.2-1.3-0.4-2-0.5c-0.2,0-0.3,0-0.5,0c-0.1,0-0.3,0-0.5,0.1c-0.4,0-0.7-0.1-1.1-0.1
			c-0.2,0-0.3,0-0.5,0c-0.2,0-0.3,0.1-0.5,0.1c-0.3,0.2-0.6,0.3-1,0.4c-0.7,0.2-1.4,0.2-2.1,0.3l0,0c0.7-0.1,1.4-0.2,2-0.4
			c0.3-0.1,0.6-0.3,0.9-0.4c0.2-0.1,0.3-0.2,0.5-0.2c0.2,0,0.4,0,0.5,0c0.3,0,0.7,0.1,1,0.1c0.2,0,0.3-0.1,0.5-0.1
			c0.2,0,0.4,0,0.5,0.1c0.7,0.1,1.4,0.3,2,0.5l-0.1,0.2c-0.4-0.2-0.7-0.4-1.1-0.6c-0.4-0.2-0.7-0.4-1.1-0.5
			c-0.2-0.1-0.4-0.1-0.6-0.1L75,53.1c-0.2-0.1-0.4-0.1-0.6-0.2l-0.6-0.2l-0.6-0.2c-0.2-0.1-0.4-0.1-0.6-0.2
			c-0.2-0.1-0.4-0.2-0.6-0.3l-0.5-0.3l-1-0.7C70.2,50.7,69.8,50.5,69.5,50.2L69.5,50.2z"/>
		
			<radialGradient id="SVGID_66_" cx="71.5288" cy="327.7649" r="0.5596" gradientTransform="matrix(1 0 0 -1.8073 0.105 643.1769)" gradientUnits="userSpaceOnUse">
			<stop  offset="0" style="stop-color:#EFD89C"/>
			<stop  offset="7.537065e-002" style="stop-color:#ECD495"/>
			<stop  offset="0.3334" style="stop-color:#E6C882"/>
			<stop  offset="0.5991" style="stop-color:#E1C177"/>
			<stop  offset="0.8823" style="stop-color:#E0BF73"/>
			<stop  offset="1" style="stop-color:#E0BF73"/>
		</radialGradient>
		<path fill="url(#SVGID_66_)" d="M71,51.1c0,0,0-0.1,0.1-0.2c0-0.1,0.1-0.1,0.2-0.1c0.1,0,0.2,0,0.2-0.1c0.1-0.1,0.1-0.1,0.2-0.2
			c0.1,0,0.2,0,0.2,0c0.1,0,0.2,0.1,0.2,0.1l0,0c0,0-0.1,0.1-0.2,0.1s-0.1,0-0.2,0.1c-0.1,0-0.2,0-0.3,0s-0.2,0-0.2,0.1
			C71.2,51,71.1,51,71,51.1C71.1,51.1,71,51.1,71,51.1L71,51.1z"/>
		
			<radialGradient id="SVGID_67_" cx="76.6953" cy="325.4661" r="2.7359" gradientTransform="matrix(1 0 0 -1.8073 0.105 643.1769)" gradientUnits="userSpaceOnUse">
			<stop  offset="0" style="stop-color:#EFD89C"/>
			<stop  offset="7.537065e-002" style="stop-color:#ECD495"/>
			<stop  offset="0.3334" style="stop-color:#E6C882"/>
			<stop  offset="0.5991" style="stop-color:#E1C177"/>
			<stop  offset="0.8823" style="stop-color:#E0BF73"/>
			<stop  offset="1" style="stop-color:#E0BF73"/>
		</radialGradient>
		<path fill="url(#SVGID_67_)" d="M73,54.5c0,0,0.5,0,1.2,0c0.4,0,0.8,0,1.2,0.1c0.4,0.1,0.9,0.1,1.4,0.1s1,0,1.4,0.1
			c0.4,0.1,0.9,0.1,1.2,0.2c0.7,0.2,1.2,0.3,1.2,0.3l0,0c0,0-0.5,0-1.2-0.2C79,55,78.6,55,78.2,54.9c-0.4-0.1-0.9-0.1-1.4-0.2
			c-0.9-0.2-1.9,0-2.6-0.1C73.4,54.6,73,54.5,73,54.5L73,54.5z"/>
		
			<radialGradient id="SVGID_68_" cx="71.395" cy="326.4329" r="1.5622" gradientTransform="matrix(1 0 0 -1.8073 0.105 643.1769)" gradientUnits="userSpaceOnUse">
			<stop  offset="0" style="stop-color:#EFD89C"/>
			<stop  offset="7.537065e-002" style="stop-color:#ECD495"/>
			<stop  offset="0.3334" style="stop-color:#E6C882"/>
			<stop  offset="0.5991" style="stop-color:#E1C177"/>
			<stop  offset="0.8823" style="stop-color:#E0BF73"/>
			<stop  offset="1" style="stop-color:#E0BF73"/>
		</radialGradient>
		<path fill="url(#SVGID_68_)" d="M73.5,53.9c0,0-0.3-0.1-0.6-0.3c-0.1-0.1-0.2-0.1-0.3-0.1s-0.2-0.1-0.3-0.2
			c-0.2-0.1-0.5-0.2-0.8-0.2c-0.5-0.1-1.1-0.2-1.4-0.3c-0.4-0.1-0.6-0.2-0.6-0.2l0,0c0,0,0.3,0,0.7,0.1c0.4,0.1,0.9,0.2,1.4,0.4
			c0.2,0.1,0.5,0.2,0.8,0.2c0.2,0.1,0.5,0.1,0.7,0.3C73.3,53.7,73.5,53.9,73.5,53.9L73.5,53.9z"/>
	</g>
	<g>
		
			<radialGradient id="SVGID_69_" cx="98.2607" cy="327.0676" r="5.7604" gradientTransform="matrix(1 0 0 -1.8073 0.105 643.1769)" gradientUnits="userSpaceOnUse">
			<stop  offset="0" style="stop-color:#EFD89C"/>
			<stop  offset="7.537065e-002" style="stop-color:#ECD495"/>
			<stop  offset="0.3334" style="stop-color:#E6C882"/>
			<stop  offset="0.5991" style="stop-color:#E1C177"/>
			<stop  offset="0.8823" style="stop-color:#E0BF73"/>
			<stop  offset="1" style="stop-color:#E0BF73"/>
		</radialGradient>
		<path fill="url(#SVGID_69_)" d="M105.4,49.4c-0.3,0.1-0.6,0.2-0.9,0.4s-0.6,0.3-0.9,0.4l-0.9,0.3c-0.3,0.1-0.6,0.3-0.9,0.4
			c-0.6,0.3-1.1,0.6-1.7,1c-0.6,0.3-1.1,0.6-1.7,0.9c-0.6,0.3-1,0.8-1.6,1.2c-0.1,0.1-0.3,0.2-0.4,0.2c-0.2,0.1-0.3,0.1-0.5,0.2
			L95,54.8l-3.7,1.3l-0.1-0.2c0.5-0.2,0.9-0.6,1.4-0.9c0.2-0.2,0.5-0.3,0.7-0.4c0.2-0.1,0.5-0.3,0.8-0.4c0.5-0.2,1-0.4,1.5-0.6
			l0.7-0.4l0.7-0.4c0.2-0.1,0.4-0.3,0.6-0.5l0.6-0.5c0.4-0.3,0.8-0.7,1.2-1.1l0.6-0.6c0.2-0.2,0.4-0.4,0.5-0.6l1.1-1.3l0,0l-1,1.3
			c-0.2,0.2-0.3,0.4-0.5,0.6l-0.6,0.6c-0.4,0.4-0.8,0.8-1.2,1.2l-0.6,0.6c-0.2,0.2-0.4,0.4-0.7,0.5l-0.7,0.4l-0.8,0.4
			c-0.5,0.2-1,0.4-1.5,0.6c-0.3,0.1-0.5,0.2-0.7,0.4c-0.2,0.1-0.5,0.3-0.7,0.4c-0.5,0.3-0.9,0.6-1.4,0.9l-0.1-0.2l3.7-1.2l0.9-0.3
			c0.2,0,0.3-0.1,0.4-0.2c0.1-0.1,0.3-0.1,0.4-0.2c0.5-0.4,1-0.9,1.5-1.2c0.6-0.3,1.1-0.7,1.7-1c0.6-0.3,1.1-0.6,1.7-0.9
			c0.3-0.1,0.6-0.3,0.9-0.4l0.9-0.3c0.3-0.1,0.6-0.2,0.9-0.3C104.8,49.6,105.1,49.4,105.4,49.4L105.4,49.4z"/>
		
			<radialGradient id="SVGID_70_" cx="101.0977" cy="326.9563" r="3.6374" gradientTransform="matrix(1 0 0 -1.8073 0.105 643.1769)" gradientUnits="userSpaceOnUse">
			<stop  offset="0" style="stop-color:#EFD89C"/>
			<stop  offset="7.537065e-002" style="stop-color:#ECD495"/>
			<stop  offset="0.3334" style="stop-color:#E6C882"/>
			<stop  offset="0.5991" style="stop-color:#E1C177"/>
			<stop  offset="0.8823" style="stop-color:#E0BF73"/>
			<stop  offset="1" style="stop-color:#E0BF73"/>
		</radialGradient>
		<path fill="url(#SVGID_70_)" d="M105.7,50.1c-0.4,0.2-0.7,0.4-1.1,0.7l-1,0.7l-0.5,0.3c-0.2,0.1-0.4,0.2-0.6,0.3
			c-0.2,0.1-0.4,0.1-0.6,0.2l-0.6,0.2l-0.6,0.2c-0.2,0.1-0.4,0.1-0.6,0.2L99.6,53c-0.2,0-0.4,0-0.6,0.1c-0.4,0.1-0.8,0.2-1.1,0.5
			c-0.4,0.2-0.7,0.4-1.1,0.6L96.6,54c0.7-0.2,1.3-0.4,2-0.5c0.2,0,0.4,0,0.5-0.1c0.2,0,0.4,0,0.5,0.1c0.3,0,0.7-0.1,1-0.1
			c0.2,0,0.4,0,0.5,0c0.2,0,0.4,0.1,0.5,0.2c0.3,0.2,0.6,0.3,0.9,0.4c0.6,0.2,1.3,0.3,2,0.4l0,0c-0.7-0.1-1.4-0.1-2.1-0.3
			c-0.3-0.1-0.7-0.2-1-0.4c-0.2-0.1-0.3-0.1-0.5-0.1c-0.2,0-0.3,0-0.5,0c-0.3,0-0.7,0.1-1.1,0.1c-0.2,0-0.4,0-0.5-0.1
			c-0.2,0-0.3,0-0.5,0c-0.7,0.1-1.3,0.3-2,0.5l-0.9,0.2l0.8-0.4c0.4-0.2,0.8-0.4,1.1-0.6c0.4-0.2,0.8-0.4,1.2-0.4
			c0.4-0.1,0.8-0.1,1.2-0.2c0.2-0.1,0.4-0.1,0.6-0.2l0.6-0.3l0.6-0.3c0.2-0.1,0.4-0.1,0.6-0.2c0.2-0.1,0.4-0.2,0.5-0.3l0.5-0.3
			l1.1-0.6C105,50.4,105.4,50.2,105.7,50.1L105.7,50.1z"/>
		
			<radialGradient id="SVGID_71_" cx="103.4814" cy="327.8723" r="0.5603" gradientTransform="matrix(1 0 0 -1.8073 0.105 643.1769)" gradientUnits="userSpaceOnUse">
			<stop  offset="0" style="stop-color:#EFD89C"/>
			<stop  offset="7.537065e-002" style="stop-color:#ECD495"/>
			<stop  offset="0.3334" style="stop-color:#E6C882"/>
			<stop  offset="0.5991" style="stop-color:#E1C177"/>
			<stop  offset="0.8823" style="stop-color:#E0BF73"/>
			<stop  offset="1" style="stop-color:#E0BF73"/>
		</radialGradient>
		<path fill="url(#SVGID_71_)" d="M104.2,50.9c0,0-0.1,0-0.2-0.1c-0.1,0-0.1-0.1-0.2-0.2c-0.1-0.1-0.1-0.1-0.2-0.1
			c-0.1,0-0.2,0-0.3,0c-0.1,0-0.1,0-0.2-0.1c-0.1,0-0.2-0.1-0.2-0.1l0,0c0,0,0.1-0.1,0.2-0.1c0.1,0,0.2,0,0.2,0
			c0.1,0,0.2,0.1,0.2,0.2c0.1,0.1,0.2,0.1,0.2,0.1c0.1,0,0.2,0,0.2,0.1C104.2,50.8,104.2,50.9,104.2,50.9L104.2,50.9z"/>
		
			<radialGradient id="SVGID_72_" cx="98.3145" cy="325.5715" r="2.7375" gradientTransform="matrix(1 0 0 -1.8073 0.105 643.1769)" gradientUnits="userSpaceOnUse">
			<stop  offset="0" style="stop-color:#EFD89C"/>
			<stop  offset="7.537065e-002" style="stop-color:#ECD495"/>
			<stop  offset="0.3334" style="stop-color:#E6C882"/>
			<stop  offset="0.5991" style="stop-color:#E1C177"/>
			<stop  offset="0.8823" style="stop-color:#E0BF73"/>
			<stop  offset="1" style="stop-color:#E0BF73"/>
		</radialGradient>
		<path fill="url(#SVGID_72_)" d="M102.2,54.3c0,0-0.5,0.1-1.2,0.2c-0.7,0.1-1.7,0-2.6,0.1c-0.5,0.1-1,0.1-1.4,0.2s-0.8,0.1-1.2,0.2
			c-0.7,0.1-1.2,0.2-1.2,0.2l0,0c0,0,0.5-0.2,1.2-0.3c0.3-0.1,0.8-0.2,1.2-0.2c0.5-0.1,0.9-0.1,1.4-0.1s1,0,1.4-0.1
			c0.4-0.1,0.9-0.1,1.2-0.1C101.8,54.3,102.2,54.3,102.2,54.3L102.2,54.3z"/>
		
			<radialGradient id="SVGID_73_" cx="103.6152" cy="326.5383" r="1.5633" gradientTransform="matrix(1 0 0 -1.8073 0.105 643.1769)" gradientUnits="userSpaceOnUse">
			<stop  offset="0" style="stop-color:#EFD89C"/>
			<stop  offset="7.537065e-002" style="stop-color:#ECD495"/>
			<stop  offset="0.3334" style="stop-color:#E6C882"/>
			<stop  offset="0.5991" style="stop-color:#E1C177"/>
			<stop  offset="0.8823" style="stop-color:#E0BF73"/>
			<stop  offset="1" style="stop-color:#E0BF73"/>
		</radialGradient>
		<path fill="url(#SVGID_73_)" d="M101.7,53.7c0,0,0.2-0.2,0.5-0.5c0.2-0.1,0.4-0.2,0.7-0.3c0.3,0,0.5-0.1,0.8-0.2
			c0.5-0.2,1-0.3,1.4-0.4c0.4-0.1,0.7-0.1,0.7-0.1l0,0c0,0-0.2,0.1-0.6,0.2c-0.4,0.1-0.9,0.2-1.4,0.3c-0.3,0-0.5,0.1-0.8,0.2
			c-0.1,0-0.2,0.1-0.3,0.2c-0.1,0.1-0.2,0.1-0.3,0.1C102,53.6,101.7,53.7,101.7,53.7L101.7,53.7z"/>
	</g>
	<g>
		
			<radialGradient id="SVGID_74_" cx="93.9805" cy="377.5452" r="5.0944" gradientTransform="matrix(1 0 0 -2.2113 0.105 883.7902)" gradientUnits="userSpaceOnUse">
			<stop  offset="0" style="stop-color:#EFD89C"/>
			<stop  offset="7.537065e-002" style="stop-color:#ECD495"/>
			<stop  offset="0.3334" style="stop-color:#E6C882"/>
			<stop  offset="0.5991" style="stop-color:#E1C177"/>
			<stop  offset="0.8823" style="stop-color:#E0BF73"/>
			<stop  offset="1" style="stop-color:#E0BF73"/>
		</radialGradient>
		<path fill="url(#SVGID_74_)" d="M98.5,43.4c-0.2,0.2-0.4,0.4-0.6,0.7c-0.2,0.2-0.4,0.5-0.6,0.7l-0.6,0.7c-0.2,0.2-0.4,0.5-0.5,0.7
			c-0.3,0.5-0.7,1-1,1.5l-0.5,0.7L94.2,49c-0.2,0.2-0.3,0.5-0.5,0.8c-0.1,0.3-0.2,0.5-0.4,0.8c-0.3,0.5-0.8,0.9-1.2,1.3l-2.4,2.6
			l-0.6,0.6l0.4-0.7c0.3-0.4,0.5-0.9,0.8-1.3l0.4-0.7c0.1-0.2,0.3-0.4,0.5-0.6c0.3-0.4,0.7-0.8,1-1.2c0.3-0.4,0.6-0.8,0.9-1.2
			c0.1-0.2,0.2-0.5,0.3-0.7l0.3-0.7c0.2-0.5,0.4-0.9,0.6-1.4c0.4-0.9,0.7-1.9,1.1-2.9l0,0c-0.3,1-0.5,2-0.9,3
			c-0.2,0.5-0.4,1-0.6,1.4l-0.3,0.7c-0.1,0.2-0.2,0.5-0.4,0.7c-0.3,0.4-0.6,0.9-0.9,1.3s-0.7,0.8-1,1.2c-0.4,0.4-0.6,0.8-0.9,1.2
			c-0.3,0.4-0.6,0.9-0.9,1.3l-0.1-0.1l2.5-2.5c0.4-0.4,0.8-0.8,1.1-1.4c0.2-0.3,0.3-0.5,0.4-0.8c0.1-0.3,0.3-0.5,0.4-0.8l0.5-0.8
			l0.5-0.7c0.4-0.5,0.7-1,1.1-1.4c0.2-0.2,0.4-0.5,0.6-0.7l0.6-0.6c0.2-0.2,0.4-0.4,0.6-0.6C98.1,43.8,98.3,43.6,98.5,43.4
			L98.5,43.4z"/>
		
			<radialGradient id="SVGID_75_" cx="96.0352" cy="378.2717" r="3.3226" gradientTransform="matrix(1 0 0 -2.2113 0.105 883.7902)" gradientUnits="userSpaceOnUse">
			<stop  offset="0" style="stop-color:#EFD89C"/>
			<stop  offset="7.537065e-002" style="stop-color:#ECD495"/>
			<stop  offset="0.3334" style="stop-color:#E6C882"/>
			<stop  offset="0.5991" style="stop-color:#E1C177"/>
			<stop  offset="0.8823" style="stop-color:#E0BF73"/>
			<stop  offset="1" style="stop-color:#E0BF73"/>
		</radialGradient>
		<path fill="url(#SVGID_75_)" d="M98.9,43.8c-0.4,0.6-0.8,1.3-1.2,1.9c-0.2,0.3-0.4,0.6-0.6,0.9c-0.3,0.3-0.5,0.5-0.8,0.8
			c-0.1,0.1-0.3,0.3-0.4,0.4l-0.4,0.4c-0.3,0.2-0.6,0.4-0.9,0.7c-0.3,0.3-0.5,0.5-0.7,0.8c-0.2,0.3-0.4,0.6-0.6,0.9l-0.1-0.1
			c0.4-0.4,0.8-0.8,1.3-1.2c0.1-0.1,0.2-0.2,0.4-0.3c0.1-0.1,0.3-0.2,0.4-0.2c0.1,0,0.2-0.1,0.3-0.2l0.4-0.2
			c0.2-0.2,0.5-0.3,0.9-0.3c0.2,0,0.3,0,0.4,0c0.1,0,0.3,0,0.4,0c0.6-0.1,1.1-0.3,1.6-0.4l0,0c-0.5,0.2-1,0.5-1.6,0.6
			c-0.1,0-0.3,0.1-0.4,0c-0.1,0-0.3,0-0.4,0c-0.2,0-0.5,0.2-0.7,0.3l-0.4,0.2c-0.1,0.1-0.3,0.2-0.4,0.2c-0.2,0.1-0.2,0.1-0.4,0.2
			c-0.1,0.1-0.2,0.1-0.3,0.2c-0.4,0.3-0.9,0.7-1.3,1.1l-0.1-0.1c0.2-0.3,0.5-0.6,0.7-0.9s0.5-0.6,0.8-0.8c0.3-0.2,0.6-0.4,0.9-0.7
			l0.4-0.4c0.1-0.2,0.2-0.3,0.4-0.4c0.2-0.3,0.5-0.6,0.7-0.9s0.4-0.6,0.7-0.9C98,45,98.4,44.4,98.9,43.8L98.9,43.8z"/>
		
			<radialGradient id="SVGID_76_" cx="97.3184" cy="379.261" r="0.4403" gradientTransform="matrix(1 0 0 -2.2113 0.105 883.7902)" gradientUnits="userSpaceOnUse">
			<stop  offset="0" style="stop-color:#EFD89C"/>
			<stop  offset="7.537065e-002" style="stop-color:#ECD495"/>
			<stop  offset="0.3334" style="stop-color:#E6C882"/>
			<stop  offset="0.5991" style="stop-color:#E1C177"/>
			<stop  offset="0.8823" style="stop-color:#E0BF73"/>
			<stop  offset="1" style="stop-color:#E0BF73"/>
		</radialGradient>
		<path fill="url(#SVGID_76_)" d="M98,45.2c0,0-0.1,0-0.2,0c-0.1,0-0.1,0-0.2-0.1c-0.1,0-0.1,0-0.2,0c-0.1,0-0.1,0-0.2,0.1
			c-0.1,0-0.1,0-0.2,0s-0.2,0-0.2,0l0,0c0,0,0-0.1,0.1-0.1c0,0,0.1-0.1,0.2-0.1c0.1,0,0.2,0,0.2,0c0.1,0,0.1,0,0.2,0s0.1,0,0.2,0
			C97.9,45,98,45.2,98,45.2L98,45.2z"/>
		
			<radialGradient id="SVGID_77_" cx="94.4971" cy="376.7639" r="2.4059" gradientTransform="matrix(1 0 0 -2.2113 0.105 883.7902)" gradientUnits="userSpaceOnUse">
			<stop  offset="0" style="stop-color:#EFD89C"/>
			<stop  offset="7.537065e-002" style="stop-color:#ECD495"/>
			<stop  offset="0.3334" style="stop-color:#E6C882"/>
			<stop  offset="0.5991" style="stop-color:#E1C177"/>
			<stop  offset="0.8823" style="stop-color:#E0BF73"/>
			<stop  offset="1" style="stop-color:#E0BF73"/>
		</radialGradient>
		<path fill="url(#SVGID_77_)" d="M97.3,48.8c0,0-0.3,0.3-0.8,0.7c-0.5,0.4-1.3,0.6-1.9,1.2c-0.3,0.3-0.7,0.5-1,0.7
			c-0.3,0.2-0.6,0.4-0.8,0.6c-0.5,0.4-0.8,0.6-0.8,0.6l0,0c0,0,0.3-0.3,0.7-0.7c0.2-0.2,0.5-0.4,0.8-0.7c0.3-0.2,0.7-0.4,1-0.6
			c0.4-0.2,0.7-0.4,1-0.6s0.6-0.4,0.9-0.6C96.9,48.9,97.3,48.8,97.3,48.8L97.3,48.8z"/>
		
			<radialGradient id="SVGID_78_" cx="98" cy="378.3655" r="1.4281" gradientTransform="matrix(1 0 0 -2.2113 0.105 883.7902)" gradientUnits="userSpaceOnUse">
			<stop  offset="0" style="stop-color:#EFD89C"/>
			<stop  offset="7.537065e-002" style="stop-color:#ECD495"/>
			<stop  offset="0.3334" style="stop-color:#E6C882"/>
			<stop  offset="0.5991" style="stop-color:#E1C177"/>
			<stop  offset="0.8823" style="stop-color:#E0BF73"/>
			<stop  offset="1" style="stop-color:#E0BF73"/>
		</radialGradient>
		<path fill="url(#SVGID_78_)" d="M96.8,48.5c0,0,0.1-0.2,0.2-0.6c0.1-0.2,0.2-0.3,0.4-0.5c0.2-0.1,0.4-0.3,0.5-0.5
			c0.3-0.4,0.7-0.7,1-0.9c0.3-0.2,0.5-0.3,0.5-0.3l0,0c0,0-0.1,0.2-0.4,0.5c-0.2,0.3-0.6,0.6-1,0.8c-0.2,0.1-0.4,0.3-0.5,0.5
			s-0.2,0.3-0.3,0.5C97,48.3,96.8,48.5,96.8,48.5L96.8,48.5z"/>
	</g>
	<g>
		
			<radialGradient id="SVGID_79_" cx="81.4409" cy="333.3967" r="5" gradientTransform="matrix(1 0 0 -1.8385 0.105 661.7523)" gradientUnits="userSpaceOnUse">
			<stop  offset="0" style="stop-color:#EFD89C"/>
			<stop  offset="7.537065e-002" style="stop-color:#ECD495"/>
			<stop  offset="0.3334" style="stop-color:#E6C882"/>
			<stop  offset="0.5991" style="stop-color:#E1C177"/>
			<stop  offset="0.8823" style="stop-color:#E0BF73"/>
			<stop  offset="1" style="stop-color:#E0BF73"/>
		</radialGradient>
		<path fill="url(#SVGID_79_)" d="M77.5,43.2c0.2,0.2,0.4,0.4,0.6,0.7c0.2,0.2,0.4,0.5,0.6,0.7l0.6,0.7c0.2,0.2,0.3,0.5,0.5,0.7
			c0.3,0.5,0.6,1,0.9,1.5c0.3,0.5,0.6,1,0.9,1.5c0.3,0.5,0.4,1.1,0.7,1.6c0.1,0.3,0.3,0.5,0.5,0.7l0.6,0.7l2.4,2.6l-0.1,0.1
			c-0.3-0.4-0.5-0.9-0.7-1.3c-0.1-0.2-0.2-0.4-0.4-0.6c-0.1-0.2-0.3-0.4-0.4-0.6c-0.3-0.4-0.6-0.8-0.9-1.2l-0.4-0.6l-0.4-0.7
			c-0.1-0.2-0.2-0.5-0.3-0.7L82,48.3c-0.2-0.5-0.3-1-0.4-1.4c-0.1-0.5-0.2-1-0.3-1.5l-0.2-1.5l0,0l0.3,1.5c0.1,0.5,0.2,1,0.3,1.4
			c0.1,0.5,0.3,0.9,0.4,1.4l0.3,0.7c0.1,0.2,0.1,0.5,0.3,0.7l0.4,0.6l0.4,0.6c0.3,0.4,0.6,0.8,0.9,1.2c0.2,0.2,0.3,0.4,0.4,0.6
			c0.1,0.2,0.3,0.4,0.4,0.7c0.2,0.4,0.4,0.9,0.7,1.3l-0.1,0.1L83.5,52l-0.6-0.6c-0.2-0.2-0.4-0.5-0.5-0.7c-0.3-0.5-0.4-1.1-0.7-1.6
			c-0.3-0.5-0.6-1-0.9-1.5c-0.3-0.5-0.6-1-0.9-1.5c-0.2-0.2-0.3-0.5-0.5-0.7l-0.6-0.7c-0.2-0.2-0.4-0.5-0.5-0.7
			C77.8,43.6,77.7,43.4,77.5,43.2L77.5,43.2z"/>
		
			<radialGradient id="SVGID_80_" cx="78.9873" cy="334.3215" r="3.4564" gradientTransform="matrix(1 0 0 -1.8385 0.105 661.7523)" gradientUnits="userSpaceOnUse">
			<stop  offset="0" style="stop-color:#EFD89C"/>
			<stop  offset="7.537065e-002" style="stop-color:#ECD495"/>
			<stop  offset="0.3334" style="stop-color:#E6C882"/>
			<stop  offset="0.5991" style="stop-color:#E1C177"/>
			<stop  offset="0.8823" style="stop-color:#E0BF73"/>
			<stop  offset="1" style="stop-color:#E0BF73"/>
		</radialGradient>
		<path fill="url(#SVGID_80_)" d="M77,43.5c0.2,0.3,0.4,0.6,0.6,0.9l0.6,1l0.3,0.5c0.1,0.2,0.2,0.3,0.3,0.4c0.1,0.1,0.2,0.3,0.4,0.4
			c0.1,0.1,0.2,0.3,0.3,0.5l0.3,0.5c0.1,0.2,0.2,0.3,0.3,0.4c0.3,0.2,0.6,0.5,0.9,0.7s0.5,0.5,0.7,0.9c0.2,0.3,0.4,0.6,0.6,0.9
			l-0.1,0.1c-0.4-0.4-0.9-0.9-1.3-1.2c-0.1-0.1-0.2-0.2-0.4-0.3l-0.2-0.1L80.1,49c-0.3-0.2-0.5-0.4-0.8-0.5
			c-0.1-0.1-0.3-0.2-0.4-0.2c-0.1-0.1-0.2-0.1-0.4-0.1l-0.9-0.1c-0.2,0-0.3-0.1-0.4-0.1c-0.1-0.1-0.3-0.1-0.4-0.2L76,47.4l0,0
			l0.9,0.3c0.1,0,0.3,0.1,0.4,0.1c0.1,0,0.3,0.1,0.4,0.1l0.9,0.1c0.1,0,0.3,0,0.5,0.1c0.2,0.1,0.3,0.1,0.4,0.2
			c0.3,0.2,0.5,0.4,0.7,0.5l0.2,0.1l0.2,0.1c0.1,0.1,0.3,0.2,0.4,0.3c0.5,0.4,0.9,0.8,1.3,1.3l-0.1,0.1c-0.2-0.3-0.4-0.6-0.6-1
			c-0.2-0.3-0.4-0.6-0.7-0.9c-0.1-0.1-0.3-0.2-0.4-0.4L80,48.2c-0.1-0.1-0.3-0.3-0.4-0.4l-0.3-0.4L79,46.9c-0.1-0.1-0.2-0.3-0.4-0.4
			c-0.1-0.2-0.2-0.3-0.3-0.5L78,45.5C77.7,44.8,77.3,44.2,77,43.5L77,43.5z"/>
		
			<radialGradient id="SVGID_81_" cx="78.3359" cy="335.5139" r="0.4934" gradientTransform="matrix(1 0 0 -1.8385 0.105 661.7523)" gradientUnits="userSpaceOnUse">
			<stop  offset="0" style="stop-color:#EFD89C"/>
			<stop  offset="7.537065e-002" style="stop-color:#ECD495"/>
			<stop  offset="0.3334" style="stop-color:#E6C882"/>
			<stop  offset="0.5991" style="stop-color:#E1C177"/>
			<stop  offset="0.8823" style="stop-color:#E0BF73"/>
			<stop  offset="1" style="stop-color:#E0BF73"/>
		</radialGradient>
		<path fill="url(#SVGID_81_)" d="M77.8,44.9c0,0,0.1-0.1,0.2-0.1c0.1-0.1,0.3,0.1,0.5,0c0.1,0,0.2-0.1,0.3,0c0.1,0,0.1,0.1,0.2,0.1
			V45l0,0c0,0-0.1,0-0.2,0c-0.1,0-0.1,0-0.2,0s-0.1,0-0.2-0.1c-0.1,0-0.2-0.1-0.2,0c-0.1,0-0.1,0.1-0.2,0.1
			C77.9,44.9,77.8,44.9,77.8,44.9L77.8,44.9z"/>
		
			<radialGradient id="SVGID_82_" cx="80.5107" cy="332.5325" r="2.4977" gradientTransform="matrix(1 0 0 -1.8385 0.105 661.7523)" gradientUnits="userSpaceOnUse">
			<stop  offset="0" style="stop-color:#EFD89C"/>
			<stop  offset="7.537065e-002" style="stop-color:#ECD495"/>
			<stop  offset="0.3334" style="stop-color:#E6C882"/>
			<stop  offset="0.5991" style="stop-color:#E1C177"/>
			<stop  offset="0.8823" style="stop-color:#E0BF73"/>
			<stop  offset="1" style="stop-color:#E0BF73"/>
		</radialGradient>
		<path fill="url(#SVGID_82_)" d="M77.9,48.4c0,0,0.4,0.2,0.9,0.5c0.3,0.2,0.6,0.4,0.9,0.6c0.3,0.3,0.7,0.5,1.1,0.7
			c0.4,0.2,0.7,0.4,1.1,0.7c0.3,0.3,0.6,0.5,0.8,0.7c0.5,0.4,0.7,0.8,0.7,0.8l0,0c0,0-0.4-0.2-0.9-0.6c-0.3-0.2-0.5-0.4-0.8-0.7
			c-0.3-0.3-0.7-0.5-1-0.8c-0.7-0.6-1.5-0.9-2-1.3C78.2,48.7,77.9,48.4,77.9,48.4L77.9,48.4z"/>
		
			<radialGradient id="SVGID_83_" cx="77.1621" cy="334.5354" r="1.4264" gradientTransform="matrix(1 0 0 -1.8385 0.105 661.7523)" gradientUnits="userSpaceOnUse">
			<stop  offset="0" style="stop-color:#EFD89C"/>
			<stop  offset="7.537065e-002" style="stop-color:#ECD495"/>
			<stop  offset="0.3334" style="stop-color:#E6C882"/>
			<stop  offset="0.5991" style="stop-color:#E1C177"/>
			<stop  offset="0.8823" style="stop-color:#E0BF73"/>
			<stop  offset="1" style="stop-color:#E0BF73"/>
		</radialGradient>
		<path fill="url(#SVGID_83_)" d="M78.5,48.1c0,0-0.2-0.2-0.3-0.5c-0.1-0.1-0.2-0.3-0.3-0.5s-0.3-0.3-0.5-0.5
			c-0.4-0.3-0.8-0.6-1-0.9c-0.2-0.3-0.4-0.5-0.4-0.5l0,0c0,0,0.2,0.1,0.5,0.3s0.6,0.5,0.9,0.9c0.1,0.2,0.3,0.4,0.5,0.5
			c0.2,0.2,0.3,0.3,0.4,0.5C78.5,47.9,78.5,48.1,78.5,48.1L78.5,48.1z"/>
	</g>
	<g>
		
			<radialGradient id="SVGID_84_" cx="74.2319" cy="339.095" r="6.4133" gradientTransform="matrix(1 0 0 -1.9249 0.105 713.214)" gradientUnits="userSpaceOnUse">
			<stop  offset="0" style="stop-color:#EFD89C"/>
			<stop  offset="7.537065e-002" style="stop-color:#ECD495"/>
			<stop  offset="0.3334" style="stop-color:#E6C882"/>
			<stop  offset="0.5991" style="stop-color:#E1C177"/>
			<stop  offset="0.8823" style="stop-color:#E0BF73"/>
			<stop  offset="1" style="stop-color:#E0BF73"/>
		</radialGradient>
		<path fill="url(#SVGID_84_)" d="M65.7,60.5c0.4,0,0.7-0.1,1.1-0.1c0.4-0.1,0.7-0.1,1.1-0.1s0.7,0,1.1-0.1c0.4,0,0.7-0.1,1.1-0.2
			c0.7-0.1,1.4-0.3,2.1-0.5c0.7-0.2,1.4-0.3,2.2-0.4c0.7-0.2,1.3-0.5,2.1-0.7c0.3-0.1,0.7-0.1,1.1-0.2h1.1L83,58v0.2
			c-0.6,0.1-1.2,0.3-1.8,0.5c-0.3,0.1-0.6,0.2-0.9,0.2C80,59,79.7,59,79.4,59c-0.6,0.1-1.2,0.1-1.9,0.2l-0.9,0.1l-0.9,0.2
			c-0.3,0-0.6,0.2-0.9,0.3L74,60.3c-0.6,0.2-1.1,0.5-1.7,0.8l-0.8,0.4c-0.3,0.1-0.5,0.3-0.8,0.5l-1.6,1l0,0l1.6-1
			c0.3-0.2,0.5-0.4,0.8-0.5l0.8-0.5c0.5-0.3,1.1-0.6,1.7-0.9l0.9-0.4c0.3-0.1,0.6-0.3,0.9-0.3l0.9-0.2l0.9-0.1
			c0.6-0.1,1.2-0.1,1.9-0.2c0.3,0,0.6-0.1,0.9-0.1c0.3,0,0.6-0.1,0.9-0.2c0.6-0.1,1.2-0.4,1.8-0.5v0.2l-4.4,0.1h-1.1
			c-0.2,0-0.4,0-0.5,0.1c-0.2,0-0.4,0.1-0.5,0.1c-0.7,0.2-1.3,0.6-2.1,0.8c-0.7,0.1-1.4,0.3-2.2,0.5c-0.7,0.1-1.4,0.3-2.2,0.4
			c-0.4,0-0.7,0.1-1.1,0.1s-0.7,0-1.1,0s-0.7,0-1.1,0.1C66.4,60.5,66,60.6,65.7,60.5L65.7,60.5z"/>
		
			<radialGradient id="SVGID_85_" cx="71.0313" cy="340.5774" r="4.234" gradientTransform="matrix(1 0 0 -1.9249 0.105 713.214)" gradientUnits="userSpaceOnUse">
			<stop  offset="0" style="stop-color:#EFD89C"/>
			<stop  offset="7.537065e-002" style="stop-color:#ECD495"/>
			<stop  offset="0.3334" style="stop-color:#E6C882"/>
			<stop  offset="0.5991" style="stop-color:#E1C177"/>
			<stop  offset="0.8823" style="stop-color:#E0BF73"/>
			<stop  offset="1" style="stop-color:#E0BF73"/>
		</radialGradient>
		<path fill="url(#SVGID_85_)" d="M65.6,59.7c0.5-0.1,0.9-0.2,1.4-0.3l1.4-0.4l0.7-0.2c0.2-0.1,0.5-0.1,0.7-0.1c0.3,0,0.5,0,0.7,0
			l0.7-0.1l0.7-0.1c0.2,0,0.5,0,0.7,0c0.5,0.1,0.9,0.2,1.4,0.2c0.2,0,0.5,0,0.7,0c0.2,0,0.5-0.1,0.7-0.1c0.5-0.1,0.9-0.2,1.4-0.3
			v0.2c-0.8,0-1.5,0-2.3-0.1c-0.2,0-0.4-0.1-0.6-0.1c-0.1,0-0.2-0.1-0.3-0.1s-0.2-0.1-0.3-0.1c-0.3-0.1-0.7-0.2-1.1-0.2
			c-0.2,0-0.4-0.1-0.6-0.2c-0.2-0.1-0.4-0.2-0.5-0.3c-0.3-0.3-0.5-0.5-0.8-0.7c-0.6-0.4-1.3-0.7-2-1l0,0l1.1,0.4
			c0.4,0.1,0.7,0.3,1,0.5c0.3,0.2,0.6,0.5,0.9,0.7c0.1,0.1,0.3,0.2,0.4,0.3c0.2,0.1,0.3,0.1,0.5,0.2c0.4,0.1,0.7,0.1,1.1,0.3
			l0.3,0.1l0.2,0.1c0.2,0,0.4,0.1,0.5,0.1c0.7,0.1,1.5,0.1,2.3,0.1v0.2c-0.5,0.1-0.9,0.1-1.4,0.2C75,59,74.7,59,74.5,59
			s-0.5,0-0.7,0c-0.5,0-0.9-0.1-1.4-0.2c-0.2,0-0.5,0-0.7,0.1L71,59c-0.2,0-0.5,0.1-0.7,0.1c-0.2,0-0.5,0-0.7,0
			c-0.2,0-0.4,0-0.7,0.1l-0.7,0.2L67,59.5C66.5,59.6,66,59.7,65.6,59.7L65.6,59.7z"/>
		
			<radialGradient id="SVGID_86_" cx="67.9761" cy="339.4319" r="0.618" gradientTransform="matrix(1 0 0 -1.9249 0.105 713.214)" gradientUnits="userSpaceOnUse">
			<stop  offset="0" style="stop-color:#EFD89C"/>
			<stop  offset="7.537065e-002" style="stop-color:#ECD495"/>
			<stop  offset="0.3334" style="stop-color:#E6C882"/>
			<stop  offset="0.5991" style="stop-color:#E1C177"/>
			<stop  offset="0.8823" style="stop-color:#E0BF73"/>
			<stop  offset="1" style="stop-color:#E0BF73"/>
		</radialGradient>
		<path fill="url(#SVGID_86_)" d="M67.5,59.3c0,0,0.1,0,0.2,0.1c0.1,0,0.1,0.1,0.1,0.2c0,0.1,0.1,0.2,0.2,0.2
			c0.2,0.1,0.3,0.1,0.5,0.2c0.1,0.1,0.2,0.2,0.2,0.2l0,0c0,0-0.1,0-0.3,0c-0.2,0-0.3-0.1-0.4-0.3c-0.1-0.1-0.1-0.2-0.2-0.2
			c-0.1,0-0.2-0.1-0.2-0.2C67.5,59.5,67.5,59.3,67.5,59.3L67.5,59.3z"/>
		
			<radialGradient id="SVGID_87_" cx="74.9316" cy="340.8313" r="3.05" gradientTransform="matrix(1 0 0 -1.9249 0.105 713.214)" gradientUnits="userSpaceOnUse">
			<stop  offset="0" style="stop-color:#EFD89C"/>
			<stop  offset="7.537065e-002" style="stop-color:#ECD495"/>
			<stop  offset="0.3334" style="stop-color:#E6C882"/>
			<stop  offset="0.5991" style="stop-color:#E1C177"/>
			<stop  offset="0.8823" style="stop-color:#E0BF73"/>
			<stop  offset="1" style="stop-color:#E0BF73"/>
		</radialGradient>
		<path fill="url(#SVGID_87_)" d="M70.8,56.4c0,0,0.5,0,1.3,0.1c0.8,0.1,1.8,0.5,2.9,0.7c0.5,0.1,1.1,0.2,1.6,0.2
			c0.5,0.1,1,0.1,1.3,0.2c0.8,0.1,1.3,0.2,1.3,0.2l0,0c0,0-0.5,0-1.3,0c-0.4,0-0.9-0.1-1.4-0.1c-0.5-0.1-1-0.2-1.5-0.3
			c-0.5-0.1-1-0.3-1.5-0.3c-0.5-0.1-1-0.2-1.3-0.3C71.3,56.6,70.8,56.5,70.8,56.4L70.8,56.4z"/>
		
			<radialGradient id="SVGID_88_" cx="68.6953" cy="340.7014" r="1.7096" gradientTransform="matrix(1 0 0 -1.9249 0.105 713.214)" gradientUnits="userSpaceOnUse">
			<stop  offset="0" style="stop-color:#EFD89C"/>
			<stop  offset="7.537065e-002" style="stop-color:#ECD495"/>
			<stop  offset="0.3334" style="stop-color:#E6C882"/>
			<stop  offset="0.5991" style="stop-color:#E1C177"/>
			<stop  offset="0.8823" style="stop-color:#E0BF73"/>
			<stop  offset="1" style="stop-color:#E0BF73"/>
		</radialGradient>
		<path fill="url(#SVGID_88_)" d="M71.2,57.2c0,0-0.3,0.2-0.7,0.3c-0.2,0.1-0.5,0.1-0.8,0.1c-0.3,0-0.6-0.1-0.9,0
			c-0.6,0-1.2,0-1.7-0.1c-0.4-0.1-0.7-0.1-0.7-0.1l0,0c0,0,0.3,0,0.8-0.1c0.5,0,1.1,0,1.7,0.1c0.3,0.1,0.6,0.1,0.9,0
			c0.1,0,0.3-0.1,0.4-0.1c0.1,0,0.2,0,0.3-0.1C70.9,57.2,71.2,57.2,71.2,57.2L71.2,57.2z"/>
	</g>
	<path fill="#F7E2B2" d="M89.2,55.7c0-0.7-0.5-0.2-0.7,0c-0.3,0.3-0.3,0.6-0.8,0.4c-0.7-0.2-0.8-1.3-1.5-1.1c-0.1,0-0.1,0.3-0.3,0.3
		c-0.1,0-0.4-0.1-0.5-0.1c-0.5,0.2-0.2,0.5-0.3,0.9c-0.1,0.4-0.4,0.3-0.6,0.7c-0.1,0.1,0,0.4-0.1,0.5c-0.1,0.2-0.4,0-0.6,0.2
		c0.2,0.2,0.4,0.2,0.5,0.6c0,0.3-0.2,0.5-0.2,0.7c0,0.3,0.4,0.2,0.6,0.5c0.1,0.2,0.1,0.6,0.1,0.9c0.4,0.1,0.7-0.2,1.1-0.1
		c0.3,0,0.6,0.3,0.9,0.5c0-0.3,0.1-0.6,0.2-0.9c0-0.1,0.1-0.3,0.1-0.5c-0.1-0.2-0.3-0.1-0.4-0.3c-0.3-0.7,1.3-0.4,1.7-0.5
		c0.6-0.2,0.5-0.8,0.6-1.4c0.1-0.5,0.3-1,0.2-1.4"/>
	<path fill="#B55613" d="M97,61.9c-0.2,0-0.4,0-0.5-0.1c-0.9-0.3-1.6-0.4-2.7-2.3c0,0,1.3-1.5,2.5-1.1c0.1,0,0.2,0.1,0.3,0.1
		c-1,0.1-2,1.2-2,1.2C95.6,61.4,96.2,61.7,97,61.9z"/>
	
		<linearGradient id="SVGID_89_" gradientUnits="userSpaceOnUse" x1="94.5273" y1="102.0754" x2="99.9174" y2="102.0754" gradientTransform="matrix(1 0 0 -1 0.105 162.3599)">
		<stop  offset="0" style="stop-color:#E0BF73"/>
		<stop  offset="1" style="stop-color:#F7ECBF"/>
	</linearGradient>
	<path fill="url(#SVGID_89_)" d="M100,60.9c0,0-1.4,1.5-2.7,1.1c-0.1,0-0.3-0.1-0.4-0.1c-0.8-0.2-1.4-0.5-2.3-2.2c0,0,0.9-1,2-1.2
		l0,0c0.2,0,0.4,0,0.6,0C98.4,59,100,60.6,100,60.9z"/>
</g>
<linearGradient id="SVGID_90_" gradientUnits="userSpaceOnUse" x1="141.2979" y1="90.4114" x2="173.5446" y2="72.4132" gradientTransform="matrix(1 0 0 -1 0.105 162.3599)">
	<stop  offset="1.075269e-002" style="stop-color:#C2BFC1"/>
	<stop  offset="0.2366" style="stop-color:#F9F9F9"/>
	<stop  offset="0.3558" style="stop-color:#F5F5F5"/>
	<stop  offset="0.4742" style="stop-color:#EAEAE9"/>
	<stop  offset="0.5923" style="stop-color:#D7D7D5"/>
	<stop  offset="0.7096" style="stop-color:#BCBCB9"/>
	<stop  offset="0.7258" style="stop-color:#B8B8B5"/>
	<stop  offset="0.7387" style="stop-color:#BEBEBC"/>
	<stop  offset="0.7996" style="stop-color:#D8D8D6"/>
	<stop  offset="0.8619" style="stop-color:#EAEAE9"/>
	<stop  offset="0.926" style="stop-color:#F4F4F4"/>
	<stop  offset="0.9944" style="stop-color:#F8F8F8"/>
</linearGradient>
<path fill="url(#SVGID_90_)" d="M169.6,83.5c-3.8,11.4-9.7,12.9-10.1,12.9c1.4-0.7,2.6-1.7,3.3-3c1.8-3.1,0.1-6.3-3-9.3
	c-6.7-6.3-20-11.3-20-11.3c4.7-4.3,7-10.5,7-10.5c8.8,2.1,14.5,6.8,16.8,8.2C166,72,171.7,77.4,169.6,83.5z"/>
<radialGradient id="SVGID_91_" cx="159.4355" cy="74.1399" r="48.192" gradientTransform="matrix(1 0 0 -1 0.105 162.3599)" gradientUnits="userSpaceOnUse">
	<stop  offset="1.075269e-002" style="stop-color:#B5B0B4"/>
	<stop  offset="0.2366" style="stop-color:#F9F9F9"/>
	<stop  offset="0.3718" style="stop-color:#F5F5F5"/>
	<stop  offset="0.506" style="stop-color:#EAEAE9"/>
	<stop  offset="0.6394" style="stop-color:#D8D8D5"/>
	<stop  offset="0.7312" style="stop-color:#C7C7C3"/>
	<stop  offset="0.7814" style="stop-color:#D9D9D6"/>
	<stop  offset="0.8494" style="stop-color:#EAEAE9"/>
	<stop  offset="0.9195" style="stop-color:#F5F5F4"/>
	<stop  offset="0.9944" style="stop-color:#F8F8F8"/>
</radialGradient>
<path fill="url(#SVGID_91_)" d="M162.9,93.4c-0.7,1.3-1.9,2.2-3.3,3l0,0c-9.5,4.8-31.6-1.7-34.1-3c-2.8-1.4,3.7-10.1,5.3-9.8
	c1.6,0.4,21.8,5.5,25.1,5c3.3-0.5,5.2-1.2,3.9-4.5C163,87.1,164.7,90.3,162.9,93.4z"/>
<g>
	
		<radialGradient id="SVGID_92_" cx="144.4453" cy="76.8987" r="16.6775" gradientTransform="matrix(1 0 0 -1 0.105 162.3599)" gradientUnits="userSpaceOnUse">
		<stop  offset="5.618000e-003" style="stop-color:#C7C7C8"/>
		<stop  offset="0.3221" style="stop-color:#DADADA"/>
		<stop  offset="0.8237" style="stop-color:#FFFFFF"/>
	</radialGradient>
	<path fill="url(#SVGID_92_)" d="M139.9,72.8c0,0,1.1,0.4,2.9,1.1c1.9,0.8,4.5,1.8,7.5,3.4c1.5,0.8,3.2,1.7,4.8,2.8
		c1.7,1.1,3.4,2.3,5,3.8c0.8,0.8,1.6,1.6,2.2,2.5c0.7,0.9,1.3,2,1.5,3.2c0.3,1.2,0.1,2.5-0.4,3.6l-0.2,0.4c0,0.1,0,0.1-0.1,0.2
		L163,94c-0.2,0.2-0.3,0.5-0.5,0.7l-0.6,0.7c-0.2,0.2-0.5,0.4-0.7,0.6c-1,0.7-2.1,1.3-3.2,1.6c-1.1,0.4-2.3,0.6-3.4,0.8
		c-2.3,0.3-4.5,0.3-6.7,0.2c-4.3-0.2-8.3-1-11.6-1.7c-3.4-0.7-6.1-1.6-8-2.2c-1-0.3-1.7-0.6-2.2-0.8c-0.5-0.2-0.7-0.3-0.7-0.3
		s0.3,0.1,0.8,0.3c0.5,0.2,1.3,0.4,2.2,0.7c1.9,0.5,4.7,1.2,8.1,1.8c3.4,0.6,7.3,1.2,11.5,1.4c2.1,0.1,4.3,0,6.5-0.3
		c1.1-0.2,2.2-0.4,3.2-0.8c1.1-0.3,2-0.8,2.9-1.5c0.2-0.2,0.4-0.3,0.6-0.5l0.5-0.5c0.2-0.2,0.3-0.5,0.5-0.7l0.1-0.2
		c0,0,0-0.1,0.1-0.1l0.2-0.4c0.4-0.9,0.6-2,0.3-3c-0.2-1-0.7-2-1.3-2.8c-0.6-0.9-1.3-1.7-2.1-2.4c-3.1-2.9-6.5-5-9.5-6.6
		c-3-1.7-5.5-2.9-7.4-3.8C141,73.2,139.9,72.8,139.9,72.8z"/>
</g>
<linearGradient id="SVGID_93_" gradientUnits="userSpaceOnUse" x1="123.2441" y1="83.9602" x2="123.2441" y2="69.2722" gradientTransform="matrix(1 0 0 -1 0.105 162.3599)">
	<stop  offset="0" style="stop-color:#BAB8B9"/>
	<stop  offset="0.2981" style="stop-color:#CBC9CB"/>
	<stop  offset="0.7057" style="stop-color:#DCDCDD"/>
	<stop  offset="0.9944" style="stop-color:#E2E2E4"/>
</linearGradient>
<path fill="url(#SVGID_93_)" d="M121,89.3c0.8,0.4,3.4,3.4,3.9,3.8c0.5,0.4,7.8-8.2,7.9-8.9c0.1-0.8,0.1-5.8,0.1-5.8l-19.1,9.1
	C113.8,87.5,115.5,86.4,121,89.3z"/>
<linearGradient id="SVGID_94_" gradientUnits="userSpaceOnUse" x1="124.6816" y1="73.8167" x2="137.44" y2="73.8167" gradientTransform="matrix(1 0 0 -1 0.105 162.3599)">
	<stop  offset="0" style="stop-color:#A6A6A5"/>
	<stop  offset="8.116193e-002" style="stop-color:#ADADAD"/>
	<stop  offset="0.4526" style="stop-color:#CACACB"/>
	<stop  offset="0.7701" style="stop-color:#DCDCDD"/>
	<stop  offset="0.9944" style="stop-color:#E2E2E4"/>
</linearGradient>
<path fill="url(#SVGID_94_)" d="M125.4,93.4c3.5-3.2,7.6-5.8,12.2-8.1c-3.5-0.8-6.2-1.5-6.7-1.6C129.2,83.3,122.8,91.8,125.4,93.4z"
	/>
<ellipse transform="matrix(0.5877 -0.8091 0.8091 0.5877 -1.0014 160.4271)" fill="#FFFFFF" cx="156.9" cy="81.2" rx="0.3" ry="1.2"/>
<path fill="#FFFFFF" d="M158.5,67.2c0,0,1.7,1.1,1.9,1.3c0.2,0.2,0.9,0.6,1.2,0.8c0.3,0.2,1,0.7,1.3,0.9c0.3,0.3,0.8,0.5,1,0.6
	c0.2,0.2,0.2,0.3,0.2,0.3c-0.1,0-0.4-0.3-0.7-0.4c-0.3-0.2-0.4-0.3-0.6-0.3s-0.1,0.1-0.4,0.1c-0.3,0-0.5,0-0.7-0.2
	c-0.3-0.2-0.5-0.2-0.8-0.4c-0.3-0.2-0.6-0.3-0.8-0.5c-0.1-0.2-0.2-0.3-0.2-0.5c0-0.2,0-0.4-0.1-0.5c-0.2-0.1-0.3-0.3-0.4-0.4
	c-0.1-0.1-0.2-0.1-0.4-0.3c-0.2-0.2-0.4-0.2-0.4-0.3C158.5,67.2,158.5,67.2,158.5,67.2z"/>
<g>
	<path fill="#FFFFFF" d="M5.1,97.5c0,0,0.3,0.5,0.7,1.5c0.2,0.5,0.5,1,0.7,1.7c0.3,0.6,0.6,1.4,1,2.2c0.4,0.8,0.8,1.6,1.2,2.5
		c0.2,0.4,0.4,0.9,0.6,1.4c0.3,0.4,0.5,0.9,0.8,1.4c0.5,0.9,1,1.9,1.6,2.9c0.6,1,1.2,1.9,1.8,2.9s1.3,1.9,1.9,2.8
		c0.3,0.5,0.6,0.9,1,1.4c0.3,0.4,0.7,0.9,1,1.3c0.7,0.8,1.3,1.7,1.9,2.5c0.6,0.8,1.2,1.5,1.8,2.2c1.1,1.4,2,2.5,2.6,3.3
		c0.6,0.8,1,1.3,1,1.3s-0.5-0.4-1.3-1c-0.4-0.3-0.9-0.7-1.4-1.2s-1.2-1-1.8-1.6c-0.6-0.6-1.3-1.3-2-2c-0.7-0.7-1.4-1.5-2.1-2.3
		c-0.7-0.8-1.5-1.7-2.2-2.6c-0.7-0.9-1.4-1.9-2.1-2.9c-0.6-1-1.2-2-1.8-3s-1-2.1-1.5-3.1c-0.2-0.5-0.5-1-0.7-1.5
		c-0.2-0.5-0.4-1-0.5-1.5c-0.3-1-0.6-1.9-0.9-2.7c-0.3-0.8-0.4-1.6-0.6-2.3c-0.1-0.7-0.3-1.3-0.4-1.8C5.2,98.1,5.1,97.5,5.1,97.5z"
		/>
</g>
<g>
	<path fill="#F6F6F6" d="M150,46.5c0,0,0,0.6-0.1,1.8c-0.1,1.2-0.2,2.9-0.6,5.1c-0.4,2.2-1.2,4.7-2.4,7.5c-1.2,2.8-3,5.8-5.3,8.8
		c-2.3,3-5.2,5.9-8.7,8.5c-3.4,2.6-7.4,5-11.7,6.9c-4.3,1.9-9,3.4-13.8,4.5c-4.8,1-9.9,1.5-14.9,1.5s-10.1-0.5-14.9-1.5
		c-4.8-1-9.5-2.5-13.8-4.5c-4.3-1.9-8.2-4.3-11.7-6.9c-3.4-2.6-6.3-5.5-8.7-8.5c-2.3-3-4.1-6-5.3-8.8c-1.2-2.8-2-5.4-2.4-7.5
		c-0.4-2.2-0.6-3.9-0.6-5.1S35,46.5,35,46.5h0.2c0,0,0.1,0.6,0.1,1.8c0.1,1.2,0.4,2.9,0.9,5s1.3,4.6,2.6,7.3
		c1.3,2.7,3.1,5.6,5.5,8.4c2.4,2.8,5.2,5.6,8.6,8.1s7.3,4.7,11.5,6.5c4.2,1.9,8.7,3.3,13.5,4.2c2.4,0.5,4.8,0.8,7.2,1
		c1.2,0.1,2.4,0.2,3.6,0.2c1.2,0.1,2.5,0,3.7,0.1c4.8,0,9.8-0.4,14.5-1.4c4.7-1,9.3-2.4,13.5-4.2c4.2-1.8,8.1-4,11.5-6.5
		c3.4-2.5,6.3-5.2,8.6-8.1c2.3-2.8,4.1-5.7,5.5-8.4c1.3-2.7,2.1-5.2,2.7-7.3c0.5-2.1,0.7-3.8,0.9-5c0.1-1.2,0.2-1.8,0.2-1.8
		L150,46.5z"/>
</g>
<linearGradient id="SVGID_95_" gradientUnits="userSpaceOnUse" x1="34.2949" y1="117.3596" x2="149.8945" y2="117.3596" gradientTransform="matrix(1 0 0 -1 0.105 162.3599)">
	<stop  offset="0" style="stop-color:#EEEBE9"/>
	<stop  offset="0" style="stop-color:#E7E3E0"/>
	<stop  offset="3.752073e-002" style="stop-color:#D8D5D3"/>
	<stop  offset="0.1095" style="stop-color:#B1B1AF"/>
	<stop  offset="0.2078" style="stop-color:#737777"/>
	<stop  offset="0.264" style="stop-color:#4C5354"/>
	<stop  offset="0.2677" style="stop-color:#4E5556"/>
	<stop  offset="0.3751" style="stop-color:#909495"/>
	<stop  offset="0.4654" style="stop-color:#C0C2C3"/>
	<stop  offset="0.5341" style="stop-color:#DEDEDF"/>
	<stop  offset="0.573" style="stop-color:#E9E9EA"/>
	<stop  offset="0.6348" style="stop-color:#DFE0E1"/>
	<stop  offset="0.7388" style="stop-color:#C5C7CA"/>
	<stop  offset="0.8715" style="stop-color:#9BA0A5"/>
	<stop  offset="0.8764" style="stop-color:#999EA3"/>
	<stop  offset="1" style="stop-color:#DADADA"/>
	<stop  offset="1" style="stop-color:#B2B2B2"/>
</linearGradient>
<ellipse fill="none" stroke="url(#SVGID_95_)" stroke-miterlimit="10" cx="92.2" cy="45" rx="57.3" ry="44.5"/>
</svg>
